<?xml version="1.0" encoding="UTF-8" standalone="yes"?>
<!-- Created with sK1/UniConvertor (http://sk1project.org/) -->
<svg xmlns="http://www.w3.org/2000/svg" xmlns:xlink="http://www.w3.org/1999/xlink"
  width="595.276pt" height="841.89pt" viewBox="0 0 595.276 841.89"
  fill-rule="evenodd">
<g>
<g>
<path style="stroke:none; fill:#242423" d="M 209 501.89C 209 502.39 207.3 502.89 205.3 502.89C 199.3 502.89 175.5 506.69 164 509.39C 127.2 518.19 92.5 533.89 66.2 553.59C 51.3 564.79 34.4 582.29 23.6 597.79C 14.5 610.79 4.2 635.59 2.39999 648.69C 2.09999 651.59 1.39999 653.89 0.899994 653.89C 0.399994 653.89 -6.13928e-06 661.49 -6.13928e-06 670.89C -6.13928e-06 681.59 0.399994 687.89 0.999994 687.89C 1.59999 687.89 1.99999 689.09 1.99999 690.49C 1.99999 694.79 5.99999 709.79 9.69999 718.79C 22 749.49 48.5 778.99 82.7 800.09C 115.3 820.29 158.2 834.99 196.5 838.89C 202.6 839.59 208.3 840.49 209.2 840.99C 211.4 842.09 264 842.19 264 840.99C 264 840.59 267.7 839.89 272.3 839.49C 295 837.79 324.9 830.59 349 821.19C 404.5 799.49 446.5 762.29 464 719.59C 467.7 710.59 472 695.09 472 690.99C 472 689.79 472.5 688.89 473 688.89C 473.6 688.89 474 682.59 474 671.89C 474 661.19 473.6 654.89 473 654.89C 472.5 654.89 472 653.59 472 651.99C 472 650.39 470.9 644.79 469.5 639.49C 461.8 609.79 442.1 581.39 412.5 557.29C 396.2 543.89 362.3 525.69 339.8 517.99C 317.9 510.49 282.1 502.89 269.1 502.89C 266.8 502.89 265 502.39 265 501.89C 265 501.29 255 500.89 237 500.89C 219 500.89 209 501.29 209 501.89zM 268 511.39C 320.4 516.99 365.2 533.99 402.4 562.19C 443.2 593.19 465.8 639.69 461 682.69C 456.4 724.69 431.9 761.29 389.5 789.79C 364.8 806.39 331.2 819.99 298.5 826.79C 263.2 833.99 222.7 834.79 187 828.79C 109 815.79 44.7 772.79 22.1 718.59C 1.90002 669.89 13.5 618.79 54.2 577.89C 90.6 541.29 148.1 516.39 209 510.99C 224.5 509.59 253.5 509.79 268 511.39z"/>
<path style="stroke:none; fill:#242423" d="M 207 520.79C 207 521.89 207.7 526.09 208.5 530.09C 210.1 537.49 209.9 541.89 207.9 541.89C 207.2 541.89 207 540.79 207.3 539.09C 207.6 537.49 207.3 535.79 206.3 534.69C 205.2 533.49 205.1 532.59 205.9 530.99C 207.4 528.29 207.4 528.19 204.5 527.49C 200.8 526.59 199.8 527.69 202.1 529.99C 203.5 531.39 204 532.79 203.6 534.39C 203.3 535.69 203.4 537.09 204 537.39C 204.5 537.69 205 540.19 205 542.99C 205 546.59 205.4 547.89 206.4 547.89C 207.2 547.89 208.2 547.39 208.5 546.89C 209.6 545.09 210.8 545.89 211.4 548.89C 211.7 550.49 212.3 553.19 212.6 554.89C 212.9 556.49 213.6 557.89 214.2 557.89C 214.9 557.89 215.1 555.09 214.6 549.09C 214 541.09 214.2 539.99 216 537.69C 217.1 536.19 218 534.59 218 534.09C 218 532.29 215.1 531.89 214.2 533.59C 212.8 535.89 212.1 533.99 211.4 525.99C 210.8 519.99 210.4 518.89 208.9 518.89C 207.7 518.89 207 519.59 207 520.79z"/>
<path style="stroke:none; fill:#242423" d="M 250.7 520.59C 250.3 520.89 250 523.19 250 525.59C 250 530.39 247.8 533.39 243.5 534.49C 242.1 534.79 241 535.79 241 536.49C 241 538.69 243.9 539.29 245.9 537.49C 248.4 535.29 249 535.49 249 538.59C 249 540.39 247.7 542.39 244.9 544.99C 241.4 548.19 241 548.99 242.4 549.49C 243.4 549.89 244.9 549.39 246.2 548.29C 248.3 546.39 248.3 546.39 247.7 549.59C 247 552.99 247.6 555.89 249 555.89C 249.9 555.89 252 547.99 252 544.39C 252 541.19 255.5 535.89 257.6 535.89C 258.7 535.89 258.9 536.69 258.5 539.09C 258.1 540.89 258.5 543.39 259.2 544.69C 260.3 546.79 260.2 547.29 258.2 548.89C 257 549.89 255.4 550.89 254.7 551.19C 254.1 551.39 253.8 551.99 254.3 552.49C 254.7 552.89 256.7 552.69 258.7 551.99C 262.1 550.69 262.5 550.79 263.8 552.79C 265.4 555.09 268 555.49 271.1 553.89C 273.5 552.49 273.6 550.89 271.1 550.89C 270.1 550.89 268.2 550.09 267 549.09C 264.8 547.29 264.8 547.19 266.5 543.79C 267.5 541.89 268.9 539.59 269.8 538.69C 271 537.29 271 536.69 270 535.39C 268.4 533.49 267.1 533.49 264.9 535.49C 263.9 536.39 262.7 536.89 262.2 536.79C 260.5 536.09 262.9 531.89 266 530.09C 269.1 528.29 269.9 525.19 267.8 523.09C 265.7 520.99 264.3 521.79 262.6 526.39C 261.3 529.59 260.1 531.09 258.3 531.49C 256.9 531.89 255.4 533.29 254.9 534.69C 254.2 536.59 253.6 536.89 252.8 536.09C 251.9 535.19 252.1 534.19 253.8 531.89C 256.4 528.49 256.5 527.89 254.6 527.89C 253.5 527.89 253.3 526.89 253.7 523.89C 254.1 520.79 253.9 519.89 252.8 519.89C 252 519.89 251 520.19 250.7 520.59zM 263.2 543.09C 262.4 543.89 261.6 543.79 260.4 542.79C 258.9 541.59 258.9 541.39 261.1 540.89C 263.7 540.19 264.8 541.49 263.2 543.09z"/>
<path style="stroke:none; fill:#242423" d="M 195 525.39C 192.6 527.89 191.1 529.89 191.8 529.89C 192.5 529.89 193.5 530.89 193.9 532.09C 194.9 534.59 192.3 538.39 188.8 539.49C 186.6 540.19 186.4 541.79 188.6 542.59C 189.4 542.89 191.1 542.19 192.4 540.99C 196 537.59 196.2 539.89 192.9 545.19C 188.7 551.99 189.1 552.89 195.3 550.39C 196.7 549.79 197 550.19 197 552.29C 197 553.89 197.6 554.89 198.4 554.89C 200.3 554.89 200.8 553.19 200 548.79C 199.6 546.79 199.7 544.29 200.3 543.39C 200.9 542.19 200.9 541.79 200.2 542.29C 198.3 543.39 198.2 540.29 200.1 537.79C 202.4 534.79 202.5 531.89 200.3 531.89C 199.4 531.89 197.8 531.19 196.8 530.19C 195.1 528.69 195.1 528.49 198.6 526.19C 201.9 523.89 202.6 521.89 200.4 521.19C 199.9 520.99 197.4 522.89 195 525.39z"/>
<path style="stroke:none; fill:#242423" d="M 144.1 534.29C 143.3 535.29 143.6 536.49 145.7 539.49C 149.6 545.29 149.2 551.69 145 549.09C 143.9 548.39 142.8 547.89 142.5 547.89C 141.7 547.89 142 554.29 142.9 555.69C 144.3 558.09 147.4 556.59 148.4 553.09C 148.9 551.29 149.8 549.99 150.4 550.19C 151 550.39 152.7 553.89 154.1 557.99C 157.3 567.29 158.7 569.89 160.5 569.89C 162.6 569.89 162.4 568.59 158.6 559.69C 155.5 552.69 154.9 548.89 156.9 548.89C 157.2 548.89 158.1 547.99 158.8 546.79C 159.9 544.99 159.9 544.39 158.6 542.99C 157.2 541.49 157.2 540.89 159 537.59C 161.5 532.99 161.5 532.89 159.1 532.89C 158 532.89 155.9 534.49 154.4 536.49L 151.6 540.09L 149.8 536.49C 147.9 532.69 146 531.99 144.1 534.29zM 155.5 542.99C 156.4 545.59 154.5 547.79 152.9 546.19C 151.7 544.99 152.6 540.89 154 540.89C 154.5 540.89 155.2 541.79 155.5 542.99z"/>
<path style="stroke:none; fill:#242423" d="M 320.4 538.49C 316.5 545.09 313.3 546.79 306.8 545.79C 303.9 545.29 301.4 545.09 301.2 545.29C 300.1 546.49 303.4 549.89 305.5 549.89C 306.9 549.89 308 550.29 308 550.79C 308 552.19 302.4 553.79 298.8 553.39C 295.7 552.99 295.6 553.09 297.4 554.39C 300.5 556.69 305.5 556.19 311.7 552.89C 315.4 550.89 318.7 549.89 321.6 549.89C 324.8 549.89 326 549.49 326 548.39C 326 547.49 325.1 546.89 323.5 546.89C 320.3 546.89 320.3 545.19 323.6 541.79C 325.6 539.69 326.1 538.39 325.6 536.49C 324.7 532.79 323.5 533.29 320.4 538.49z"/>
<path style="stroke:none; fill:#242423" d="M 361 550.89C 361 552.29 360.6 554.09 360 554.89C 359.3 556.09 359 555.99 358.4 554.39C 357.7 552.59 357.6 552.59 356.9 554.49C 355.7 557.49 355.8 563.09 357 562.39C 357.6 561.99 358.7 562.29 359.6 562.89C 360.8 563.89 361.2 563.59 362.1 560.99C 362.7 559.29 363.8 557.89 364.6 557.89C 366.4 557.89 366.4 558.79 364.4 561.09C 363 562.49 363 563.09 364 564.39C 366 566.79 369.5 566.19 370.8 563.29C 371.7 561.49 372.7 560.89 374.3 561.09C 377.7 561.59 376.9 563.19 372.1 565.59C 368.4 567.49 366.7 567.69 361.7 567.19C 357.3 566.69 355.9 566.89 356.4 567.69C 356.8 568.39 358.7 568.89 360.6 568.89C 362.9 568.89 364 569.39 364 570.39C 364 572.59 359.8 573.19 349.9 572.39C 341 571.79 340.9 571.79 341.9 573.79C 343.6 576.89 344.7 577.19 350.1 575.89C 353.8 574.99 355.5 574.99 356.3 575.79C 357.9 577.39 351.9 585.29 348.6 585.89C 346.1 586.39 346 586.49 347.5 588.59C 349.9 591.99 351.7 591.39 354.1 586.59C 356.6 581.69 360.9 575.89 362 575.89C 362.4 575.89 363 576.79 363.3 577.99C 363.7 579.39 364.5 579.89 365.7 579.69C 367.5 579.29 367.8 577.79 366.5 574.59C 365.9 573.19 366.3 572.89 368.4 572.89C 370.3 572.89 371 572.39 371 570.99C 371 568.19 373.1 566.99 377.1 567.49C 384.5 568.49 384.9 560.89 377.6 559.49C 374.4 558.89 374.1 558.49 374.6 556.49C 375.2 553.79 373.5 552.19 371.7 553.79C 371 554.29 369.4 554.59 368.2 554.19C 366.6 553.79 366 554.09 366 555.29C 366 556.19 365.3 556.89 364.5 556.89C 363.5 556.89 363 555.89 363 554.09C 363 550.49 361 547.29 361 550.89z"/>
<path style="stroke:none; fill:#242423" d="M 98.1 554.89C 98.5 559.69 97.4 560.99 95.4 558.09C 94.4 556.69 92.8 555.89 90.9 555.89C 87.1 555.89 87.2 557.29 91 558.89C 95.5 560.79 95.5 561.49 91 564.49C 86.7 567.39 86.2 568.39 88.5 569.29C 89.4 569.59 91.6 568.39 94 566.19C 96.3 564.19 98.3 562.89 98.7 563.29C 99.1 563.59 98.9 564.39 98.2 565.09C 97.5 565.79 97.4 566.79 98.1 567.99C 98.8 569.39 98.6 570.09 96.9 570.89C 95.7 571.59 93.9 571.89 92.9 571.59C 90.7 570.99 90.6 571.19 92.3 574.19C 94.9 578.79 97.7 579.09 99.1 574.89C 99.7 573.29 100.6 572.19 101.1 572.49C 102.8 573.49 102 574.59 95.5 580.89C 92 584.39 89.3 587.59 89.6 588.09C 91 590.39 94.3 588.49 98.7 582.89C 101.2 579.59 103.7 576.89 104.2 576.89C 105.4 576.89 105.3 577.09 101.9 583.89C 97.9 592.09 99.3 594.09 104.8 587.99L 108.7 583.69L 111 587.29C 113.9 591.99 115.9 594.09 117.1 593.39C 118.7 592.29 118.1 589.69 114.9 584.59L 111.8 579.59L 113.9 576.79C 116.6 573.09 116.6 572.89 113 572.89C 111.4 572.89 110 572.69 110 572.39C 110 572.09 111.1 570.09 112.5 567.89C 113.9 565.69 115 563.49 115 562.89C 115 561.09 111.1 561.89 110 563.89C 109.4 564.99 108.5 565.69 107.9 565.39C 107.3 564.99 107.4 564.09 108 562.89C 109.6 559.89 109.2 558.89 106.4 558.89C 104.3 558.89 104 559.19 104.5 560.89C 104.9 562.09 104.6 563.59 104 564.39C 103 565.59 103.1 565.89 104.3 565.89C 106.2 565.89 107.4 567.49 106.5 568.89C 105.8 569.99 100 564.39 100 562.59C 100 561.99 101.2 559.79 102.6 557.69C 104.8 554.59 105 553.69 104 552.39C 103.3 551.59 101.7 550.89 100.3 550.89C 98.1 550.89 97.9 551.19 98.1 554.89zM 110 569.89C 109.4 570.99 108.5 571.89 108 571.89C 107.4 571.89 107.5 570.99 108.2 569.89C 108.9 568.79 109.8 567.89 110.3 567.89C 110.7 567.89 110.6 568.79 110 569.89zM 107 580.69C 107 581.19 106.1 582.39 105 583.39C 102.7 585.49 102.4 584.79 104.2 581.89C 105.5 579.89 107 579.19 107 580.69z"/>
<path style="stroke:none; fill:#242423" d="M 315 553.59C 314.9 554.09 314.5 556.29 314.1 558.59C 313.1 563.59 314.2 565.39 318.3 566.09C 321.5 566.69 321.5 566.79 319 562.69C 317.9 560.89 317 557.89 317 556.09C 317 554.39 316.6 552.89 316 552.89C 315.5 552.89 315 553.19 315 553.59z"/>
<path style="stroke:none; fill:#242423" d="M 223 567.99C 159.2 571.09 102.4 599.19 80.4 638.49C 74.3 649.39 71.9 657.99 71.3 670.39C 70.8 679.59 71.1 682.89 72.9 689.89C 79.7 717.09 101.7 740.89 135.5 757.49C 179.8 779.19 234.7 785.49 288 774.89C 307.1 771.09 321.4 766.29 338.5 757.89C 368.3 743.39 388.5 724.29 398.6 701.09C 402.9 691.19 404.4 681.89 403.7 669.39C 402.8 653.19 397.4 639.99 385.3 624.99C 354.7 586.79 291.8 564.69 223 567.99zM 259.9 574.49C 274.7 576.59 296.7 582.49 299.4 584.99C 300 585.49 273.8 585.89 238 585.89C 202.2 585.89 176 585.49 176.6 584.99C 177.7 583.99 190.9 579.59 199.9 577.39C 217.8 572.89 241.2 571.69 259.9 574.49zM 160.6 586.19C 139.9 599.49 127.1 610.69 119.1 622.69C 107.9 639.39 102.8 655.09 102.7 673.39C 102.6 691.79 107.5 707.39 118.8 724.19C 127.7 737.29 138.4 747.29 154.4 757.29C 159.3 760.39 163 762.89 162.7 762.89C 160.8 762.89 146 756.89 137.6 752.69C 106 736.89 84.9 714.49 78.5 689.89C 75.1 676.99 76.7 659.49 82.4 646.59C 90.5 628.29 109 610.19 133.4 596.89C 144.4 590.89 167.5 581.79 160.6 586.19zM 322.8 588.29C 362.1 603.39 390.1 630.39 397.1 659.69C 398.9 666.99 398.5 682.39 396.5 689.89C 389.5 715.49 369.1 736.89 336.6 752.79C 323.6 759.19 308.1 765.49 312.3 762.59C 313.3 761.99 318.1 758.89 322.8 755.79C 341.5 743.89 354.9 729.29 363.5 711.59C 376.5 684.89 375.6 658.19 360.9 630.89C 351.7 613.99 339.1 601.79 314.4 586.19C 311.1 584.09 313.8 584.79 322.8 588.29zM 314.6 592.49C 340.7 606.39 360.9 632.29 366.7 659.39C 369.5 672.59 367.2 691.89 361.1 706.19L 359.1 710.89L 238.2 710.89C 124.4 710.89 117.2 710.79 115.8 709.09C 113.6 706.59 110 696.49 108.4 688.09C 101.7 652.99 120.1 617.19 156.5 594.79L 164.4 589.89L 237.1 589.89L 309.7 589.89L 314.6 592.49zM 182.3 715.39C 184.4 715.99 184.5 715.99 182.5 716.89C 180.9 717.59 180.8 717.79 182.2 717.79C 185 717.89 185.2 719.49 182.9 723.89C 181.5 726.59 180.3 727.79 179.3 727.49C 178.4 727.09 178 727.39 178.2 728.09C 178.9 730.19 182 730.29 182 728.29C 182 726.59 182.1 726.59 183.6 728.09C 184.5 728.99 184.9 730.19 184.6 730.79C 183.2 732.99 177 731.69 177 729.29C 177 728.49 176.6 727.89 176 727.89C 175.5 727.89 175 728.29 175 728.89C 175 729.39 174.6 729.89 174 729.89C 172.4 729.89 172.8 728.49 175 726.09C 177 723.89 177 723.89 175.1 721.99C 172.8 719.69 171.7 720.69 172.5 724.09C 172.8 725.39 172.7 727.59 172.1 728.89L 171.1 731.39L 171.1 728.59C 171 726.19 170.7 725.89 168.9 726.39C 166.6 727.19 166.7 726.69 170.4 721.59C 171.7 719.79 173 719.09 174.1 719.39C 175.1 719.69 176.1 719.49 176.5 718.89C 176.8 718.39 176.6 717.89 176.1 717.89C 175.5 717.89 175 717.39 175 716.89C 175 716.29 175.6 715.89 176.4 715.89C 177.1 715.89 178.1 714.89 178.5 713.59C 179.1 711.89 179.3 711.69 179.7 712.99C 179.9 713.99 181.1 714.99 182.3 715.39zM 203.3 713.89C 202.9 714.39 201.4 714.89 200 715.19C 198.4 715.49 199 715.69 201.8 715.79C 206.1 715.89 207.2 717.29 204.8 719.69C 202.9 721.59 203.1 724.89 205.1 724.89C 206.1 724.89 207.2 725.29 207.5 725.89C 207.9 726.49 207 726.89 205.6 726.89C 203.5 726.89 203 727.39 203 729.39C 203 732.39 200.9 733.49 198.3 731.99C 196.7 731.09 196.7 730.99 198.8 730.89C 200.1 730.89 201 730.29 201 729.29C 201 727.99 200.2 727.79 197.5 728.09C 195.6 728.29 194 728.09 194 727.69C 194 727.29 194.6 726.89 195.4 726.89C 196.2 726.89 197.8 725.99 199.1 724.79C 201.4 722.89 201.4 722.79 199.3 723.79C 196.6 725.19 196 725.19 196 723.89C 196 723.29 196.7 722.89 197.6 722.89C 199 722.89 199 722.59 198 721.39C 196.2 719.19 195.3 719.49 194.5 722.59C 193.7 725.99 191.3 729.89 190 729.89C 189.5 729.89 190.4 727.39 192.1 724.29C 193.7 721.19 195 717.69 195 716.39C 195 714.59 195.8 713.89 198.8 713.19C 202.6 712.19 204.8 712.49 203.3 713.89zM 256 714.39C 256 715.99 256.6 716.89 257.5 716.89C 259.5 716.89 259.4 717.89 257.3 719.49C 256.3 720.19 255.8 721.09 256.3 721.49C 256.7 721.89 257.6 721.69 258.2 721.09C 258.9 720.39 259.9 719.89 260.5 719.89C 261 719.89 260.7 720.59 259.6 721.39C 257.1 723.29 258.1 725.49 262.4 726.99C 264.4 727.69 266 728.69 266 729.09C 266 730.69 261.3 729.79 259.5 727.89C 257 725.09 256 725.39 256 728.89C 256 731.99 255.4 732.39 252.6 731.29C 250.7 730.59 250.4 728.79 252.2 729.09C 253.7 729.49 254.4 726.49 253.6 723.39C 253.2 721.89 252.1 720.89 250.7 720.69C 247.9 720.29 248.2 718.59 251.2 717.89C 252.8 717.49 253.6 716.49 253.8 714.59C 254.2 711.19 256 710.99 256 714.39zM 281 716.99C 281.3 719.39 281.8 721.29 282.3 721.09C 282.7 720.99 283 721.19 283.1 721.59C 283.1 722.09 282.1 722.69 280.8 723.09C 279.5 723.39 279.2 723.79 280 723.79C 281.2 723.89 281 724.29 279.5 725.49C 277.5 726.99 277.5 726.99 279.4 728.49C 280.5 729.29 282.1 729.89 283 729.89C 283.9 729.89 285.5 730.59 286.6 731.39C 288.4 732.79 288.3 732.79 285.3 732.89C 283.6 732.89 281.8 732.39 281.5 731.89C 281.1 731.29 279.1 729.99 277 728.89C 273.7 727.19 273 727.09 272 728.39C 271.3 729.19 270 729.89 269.1 729.89C 267.7 729.79 267.7 729.69 269.2 728.79C 270.2 728.29 271.5 726.89 272.1 725.79C 273.1 723.79 273 723.69 270 724.39C 265 725.49 267.3 723.29 272.5 721.99C 276.8 720.89 278.9 719.49 275.3 720.09C 273.9 720.29 273.4 719.59 273.2 717.09C 272.9 714.49 273.3 713.69 275.2 712.99C 279.3 711.49 280.5 712.29 281 716.99zM 226 713.79C 226 714.39 225.6 715.09 225 715.39C 223.3 716.39 223.9 717.39 227 718.69C 230.6 720.29 230.2 721.39 225.8 722.39L 222.5 723.19L 225.3 723.59C 226.8 723.89 228 724.69 228 725.49C 228 726.29 227.4 726.89 226.8 726.79C 223.9 726.39 223 726.99 223 729.39C 223 732.19 221 733.49 218.3 732.39C 216.7 731.79 216.8 731.59 218.8 730.79C 222.2 729.49 221 727.29 217 727.69C 214.9 727.89 214 727.69 214.5 726.99C 214.8 726.39 215.7 725.89 216.4 725.89C 218 725.89 223 721.99 221.5 721.89C 221 721.89 219.8 722.29 219 722.79C 218.2 723.39 217.2 723.49 216.7 723.19C 215 722.19 218.4 720.89 223 720.89C 226.4 720.89 227.1 720.59 226.2 719.69C 225.3 718.79 223.9 718.79 220.3 719.59C 214.4 720.99 213.6 720.49 218.3 718.49C 220.3 717.69 222.3 716.09 223 714.99C 224.1 712.89 226 712.09 226 713.79zM 318 714.39C 318 715.19 317.6 715.89 317 715.89C 316.5 715.89 316 715.19 316 714.39C 316 713.59 316.5 712.89 317 712.89C 317.6 712.89 318 713.59 318 714.39zM 221 714.89C 221 715.39 220.6 715.89 220 715.89C 219.5 715.89 219 715.39 219 714.89C 219 714.29 219.5 713.89 220 713.89C 220.6 713.89 221 714.29 221 714.89zM 261.8 715.79C 262.1 716.59 261.7 716.99 260.9 716.69C 260.2 716.49 259.4 715.69 259.2 714.99C 258.9 714.19 259.3 713.79 260.1 714.09C 260.8 714.29 261.6 715.09 261.8 715.79zM 305.2 722.59C 305.4 727.49 305.3 731.79 304.9 732.19C 304.6 732.59 303 732.39 301.4 731.79C 298.7 730.59 298.6 730.49 300.8 730.19C 302.9 729.79 303 729.29 303 721.79C 303 717.49 303.4 713.89 303.9 713.89C 304.4 713.89 305 717.79 305.2 722.59zM 164 723.39C 164 731.09 163.8 731.89 162.1 731.89C 159.6 731.89 158.5 730.29 160.6 729.49C 161.8 729.09 162 727.59 161.8 723.19C 161.6 719.99 161 717.39 160.3 717.19C 159 716.69 159.1 720.59 160.4 722.69C 160.8 723.39 160.6 723.89 160 723.89C 159.4 723.89 158 725.49 156.9 727.39C 155.7 729.29 154.4 730.89 153.8 730.89C 153.3 730.89 153.1 730.49 153.5 729.99C 153.8 729.49 153.5 728.69 152.9 728.39C 152.4 727.99 152.1 727.09 152.4 726.29C 152.8 725.19 152.4 725.29 150.4 726.49C 149.1 727.39 147.6 727.79 147.2 727.39C 146.8 726.99 147.1 726.39 147.8 726.19C 148.5 725.89 149 724.09 149 721.89C 149 718.99 149.5 717.69 150.9 716.89C 154.4 715.09 155 715.69 155.1 721.09C 155.1 724.99 155.4 725.89 156 724.39C 156.5 723.29 156.9 720.99 156.9 719.19C 157 716.09 158 715.29 162.3 714.99C 163.8 714.89 164 715.89 164 723.39zM 174 715.79C 174 717.09 171.1 719.29 170.3 718.59C 169.6 717.79 171.8 714.89 173.1 714.89C 173.6 714.89 174 715.29 174 715.79zM 218 716.99C 218 717.49 217.3 717.89 216.5 717.89C 215.7 717.89 215 717.19 215 716.39C 215 715.49 215.6 715.19 216.5 715.49C 217.3 715.89 218 716.49 218 716.99zM 296.4 716.39C 296 717.19 296.3 717.89 296.9 717.89C 297.5 717.89 298 718.39 298 718.99C 298 719.59 297.2 719.79 296.1 719.39C 295 719.09 293.7 719.49 292.9 720.49C 291.7 721.99 291.8 722.09 293.7 721.49C 294.9 721.09 296.1 721.29 296.5 721.89C 297.5 723.49 296.1 726.89 294.4 726.89C 293.6 726.89 293 727.59 293 728.39C 293 730.19 294.2 730.29 295.8 728.69C 296.7 727.79 297 727.89 297 729.09C 297 731.49 295.4 732.19 292.9 730.89C 291.3 729.99 291 729.09 291.5 727.19C 292 724.89 291.9 724.69 289.5 725.29C 287 725.89 287 725.79 291.1 720.39C 295.1 715.09 297.6 713.19 296.4 716.39zM 318.9 721.59C 318.5 727.39 317 731.09 315.2 730.39C 314.4 730.09 313.2 729.89 312.3 729.89C 311.4 729.89 311 729.29 311.3 728.49C 311.6 727.69 311.4 726.79 310.7 726.49C 310 726.29 310.5 725.69 311.8 725.29C 313.5 724.79 313.8 724.39 312.9 723.79C 311.9 723.19 311.9 722.69 312.8 721.59C 313.5 720.89 313.7 719.89 313.3 719.49C 312.4 718.59 314.9 716.89 317.3 716.89C 318.9 716.89 319.1 717.59 318.9 721.59zM 327 717.69C 327 718.19 325.8 719.09 324.4 719.79C 321.1 721.29 321.8 722.29 325.3 720.99C 327.7 719.99 329 720.39 329 722.09C 329 722.49 328.3 722.89 327.5 722.89C 326.3 722.89 326 724.19 326 728.39C 326 731.39 325.6 733.89 325 733.89C 324.5 733.89 324 731.59 324 728.89C 324 723.49 322.5 722.29 320.9 726.49C 319.5 730.49 319 728.99 320.1 723.89C 321.1 719.49 323.1 716.89 325.7 716.89C 326.4 716.89 327 717.29 327 717.69zM 301 722.39C 301 723.79 300.6 724.89 300 724.89C 299.5 724.89 299 723.79 299 722.39C 299 720.99 299.5 719.89 300 719.89C 300.6 719.89 301 720.99 301 722.39zM 251.5 722.89C 251.8 723.39 251.4 723.89 250.6 723.89C 249.7 723.89 249 723.39 249 722.89C 249 722.29 249.4 721.89 249.9 721.89C 250.5 721.89 251.2 722.29 251.5 722.89zM 187 725.89C 187.8 726.39 188.2 727.09 187.9 727.39C 187.1 728.19 184 726.89 184 725.79C 184 724.69 185.1 724.69 187 725.89zM 252 725.19C 252 725.39 250.9 726.59 249.6 727.79C 248.2 729.19 247 729.59 246.6 728.99C 246.2 728.49 247.2 727.29 248.7 726.49C 251.8 724.79 252 724.69 252 725.19zM 340 735.89C 340 737.19 325.6 748.49 318.4 752.89L 312.6 756.39L 239 756.69C 198.6 756.79 164.5 756.69 163.3 756.39C 160.3 755.69 144.6 744.89 138.5 739.39L 133.5 734.89L 236.8 734.89C 303.5 734.89 340 735.29 340 735.89zM 297 763.09C 262.9 778.49 212.8 778.49 177.9 762.99L 173.5 760.99L 237.5 760.99L 301.5 760.99L 297 763.09z"/>
<path style="stroke:none; fill:#242423" d="M 239.5 603.99C 228.1 605.39 215.7 608.49 210.9 611.09C 208.7 612.39 205.4 614.19 203.7 615.09C 201.9 616.09 198.7 616.89 196.4 616.89C 192.1 616.89 188 619.59 188 622.49C 188 623.29 189.5 625.39 191.3 626.99C 199 634.19 210.3 640.39 222 643.89C 236.8 648.29 245.5 654.79 246.7 662.29C 248.1 671.09 238.8 681.99 226.6 685.79C 210.3 690.79 198 691.59 153 690.59C 147.1 690.49 144.8 690.89 142.3 692.39C 140.5 693.49 139 694.69 139 695.09C 139 695.49 163.9 695.89 194.3 695.89C 255.9 695.89 253.3 696.19 259.2 688.89C 262.6 684.59 265.9 675.69 265.2 672.39C 264.6 669.09 258.5 662.19 254.1 659.89C 252.1 658.89 247.1 654.49 242.8 650.09C 236.3 643.29 233.4 641.29 223.1 635.99C 210.7 629.49 204 623.89 204 619.79C 204 618.39 205.2 617.19 208.3 615.89C 212.6 613.99 212.6 613.99 233 616.89C 255.1 620.09 271.7 623.79 289.4 629.49C 303.5 634.09 308.2 636.49 307.8 638.69C 307.5 640.19 305.4 640.49 290 640.89C 271.6 641.39 270.4 641.69 265.7 646.69L 262.9 649.59L 266.1 650.29C 267.8 650.59 271 650.89 273.1 650.89C 275.3 650.89 277 651.39 277 651.99C 277 652.59 274.3 662.39 271 673.79C 267.7 685.19 265 694.79 265 695.19C 265 695.59 268.4 695.89 272.5 695.89C 279.4 695.89 280.1 695.69 280.9 693.59C 281.4 692.39 284.4 682.79 287.6 672.39C 290.8 661.89 294 652.59 294.8 651.69C 295.6 650.69 297.9 649.69 299.9 649.29C 308.9 647.69 316.3 641.49 321.5 631.19C 325 624.19 324.7 621.09 320.4 616.09C 317.6 612.79 315.5 611.49 310.4 609.89C 294.6 605.09 256.8 601.89 239.5 603.99z"/>
<path style="stroke:none; fill:#242423" d="M 165.1 651.79C 163.9 654.09 156 682.29 156 684.29C 156 685.49 157 685.89 160.3 685.89C 165.5 685.89 166.4 685.29 168.3 680.59C 169.7 677.39 170.3 676.89 173.1 676.89C 175.8 676.89 176.1 677.19 175.6 678.89C 175.3 679.99 174.7 681.79 174.4 682.89C 173.7 684.99 173.6 684.99 185.2 685.29C 187.2 685.39 187.8 683.99 192 668.69C 194.6 659.39 196.4 651.69 196.2 651.39C 195.9 651.09 193.1 650.89 189.9 650.89L 184.2 650.89L 182.7 655.59C 181.8 658.29 180.4 662.99 179.5 666.09C 178.1 671.49 177.7 671.89 175 671.89C 171.3 671.89 171.3 671.09 174 659.79C 175.1 655.19 175.8 651.39 175.7 651.29C 175.6 651.19 173.3 650.89 170.7 650.69C 167 650.19 165.8 650.49 165.1 651.79z"/>
<path style="stroke:none; fill:#242423" d="M 202.4 651.39C 202.2 651.89 200.5 658.89 198.5 666.89C 196.5 674.89 194.7 682.19 194.4 683.09C 193.9 684.79 195 684.89 208.4 684.89C 216.4 684.89 223.1 684.49 223.4 683.99C 224.3 682.59 233.2 652.69 232.8 652.39C 231.5 651.19 224.3 650.99 222.9 652.09C 222 652.79 219.9 658.99 218.1 665.89C 216.3 672.69 214.4 678.89 213.8 679.59C 212.3 681.49 208 681.29 208 679.29C 208 678.39 209.6 671.89 211.5 664.79C 213.4 657.69 215 651.69 215 651.49C 215 650.49 202.7 650.49 202.4 651.39z"/>
<path style="stroke:none; fill:#242423" d="M 178.8 723.59C 179.5 723.89 180.4 723.79 180.7 723.49C 181.1 723.19 180.5 722.89 179.4 722.99C 178.3 722.99 178 723.29 178.8 723.59z"/>
<path style="stroke:none; fill:#242423" d="M 199.7 717.59C 198.4 718.79 199 719.89 201 719.89C 202.1 719.89 203 719.19 203 718.39C 203 716.89 200.9 716.29 199.7 717.59z"/>
<path style="stroke:none; fill:#242423" d="M 276.4 715.89C 276.4 717.89 277.1 718.39 278.3 717.29C 279 716.59 278.1 713.89 277.1 713.89C 276.7 713.89 276.4 714.79 276.4 715.89z"/>
<path style="stroke:none; fill:#242423" d="M 151.3 720.89C 151.3 722.49 151.7 723.59 152.2 723.29C 152.6 722.99 153 721.69 153 720.29C 153 718.99 152.6 717.89 152.2 717.89C 151.7 717.89 151.3 719.19 151.3 720.89z"/>
<path style="stroke:none; fill:#242423" d="M 314 726.89C 314 727.39 314.5 727.89 315.1 727.89C 315.6 727.89 315.8 727.39 315.5 726.89C 315.2 726.29 314.7 725.89 314.4 725.89C 314.2 725.89 314 726.29 314 726.89z"/>
<path style="stroke:none; fill:#242423" d="M 197.7 740.89C 197.4 741.69 196.8 743.69 196.4 745.39L 195.7 748.39L 194.4 744.39L 193 740.39L 193.6 745.39C 194.4 752.19 195.6 754.29 196.5 750.39C 197.8 744.59 198.3 744.39 199.5 748.89C 200.3 751.69 201 752.79 201.3 751.89C 202.4 749.19 204.1 740.59 203.6 740.09C 203.3 739.89 202.8 740.99 202.5 742.49C 200.9 749.39 200.7 749.49 199.5 744.39C 198.8 741.49 198.1 739.99 197.7 740.89z"/>
<path style="stroke:none; fill:#242423" d="M 224.7 745.89C 223.9 749.19 223.6 751.89 224.1 751.89C 224.6 751.89 225 751.39 225 750.89C 225 750.29 225.9 749.89 227 749.89C 228.1 749.89 229 750.59 229 751.39C 229 752.19 229.4 752.89 229.9 752.89C 230.4 752.89 230.2 750.29 229.4 747.09C 228.7 743.99 228.1 741.09 228 740.59C 228 740.19 227.6 739.89 227.1 739.89C 226.6 739.89 225.6 742.59 224.7 745.89zM 228 745.99C 228 746.99 227.6 747.89 227 747.89C 226.5 747.89 226 746.69 226 745.29C 226 743.89 226.4 742.99 227 743.39C 227.6 743.69 228 744.89 228 745.99z"/>
<path style="stroke:none; fill:#242423" d="M 232.2 746.59L 232.3 753.39L 233 748.39L 233.6 743.39L 235.8 748.09C 237 750.79 238.2 752.89 238.5 752.89C 238.8 752.89 238.9 750.09 238.9 746.59C 238.7 741.19 238.6 740.89 238.1 744.39L 237.5 748.39L 235.6 744.09C 234.6 741.79 233.3 739.89 232.8 739.89C 232.4 739.89 232.1 742.89 232.2 746.59z"/>
<path style="stroke:none; fill:#242423" d="M 245 741.79C 243.6 744.49 243.7 749.19 245.3 751.29C 246.8 753.39 250.1 753.09 250.8 750.89C 251.3 749.59 251.1 749.59 249.6 750.89C 248 752.19 247.6 752.09 246.4 750.39C 244.7 748.09 244.7 746.89 246 743.29C 246.8 741.19 247.4 740.89 248.2 741.69C 249.9 743.39 251.5 743.19 250 741.39C 248.3 739.29 246.3 739.49 245 741.79z"/>
<path style="stroke:none; fill:#242423" d="M 253.3 746.39C 253.3 750.19 253.5 751.89 253.7 750.09C 254.1 747.39 254.5 746.79 256.3 747.09C 257.6 747.29 258.5 748.09 258.5 749.09C 258.5 749.99 258.9 751.09 259.3 751.49C 259.7 751.89 260 749.59 259.9 746.29C 259.8 742.19 259.6 741.19 259.1 742.89C 258.1 746.59 254.7 746.19 253.9 742.39C 253.5 740.49 253.3 741.99 253.3 746.39z"/>
<path style="stroke:none; fill:#242423" d="M 266.2 746.59C 266.3 753.29 266.3 753.29 266.9 748.39L 267.5 743.39L 269.4 747.69C 272.2 753.99 273 753.79 272.8 746.69C 272.7 740.69 272.7 740.59 272.1 744.89L 271.5 749.39L 269.6 745.09C 268.5 742.69 267.3 740.59 266.8 740.29C 266.4 739.99 266.1 742.79 266.2 746.59z"/>
<path style="stroke:none; fill:#242423" d="M 275.7 745.89C 274.9 749.29 274.6 752.19 275.1 752.49C 275.6 752.79 276 752.39 276 751.59C 276 749.09 278.7 748.89 280.4 751.19C 281.9 753.19 282 753.29 281.6 751.39C 279.3 741.79 278.7 739.89 278 739.89C 277.6 739.89 276.6 742.59 275.7 745.89zM 279 745.39C 279 746.79 278.6 747.89 278 747.89C 277.5 747.89 277 746.79 277 745.39C 277 743.99 277.5 742.89 278 742.89C 278.6 742.89 279 743.99 279 745.39z"/>
<path style="stroke:none; fill:#242423" d="M 205.4 746.09C 206.2 752.09 207 753.19 209.6 752.69C 211.2 752.39 211.5 751.39 211.6 746.39L 211.7 740.39L 211.1 745.89C 210.7 749.79 210.1 751.39 209 751.39C 207.9 751.39 207.4 749.99 207.2 746.09C 207 743.29 206.4 740.89 205.8 740.89C 205.1 740.89 205 742.59 205.4 746.09z"/>
<path style="stroke:none; fill:#242423" d="M 215.2 746.39C 215.3 749.69 215.5 751.09 215.7 749.59C 216.3 745.59 220.2 746.19 221.1 750.39C 221.6 752.39 221.8 751.29 221.8 746.89C 221.8 742.79 221.5 741.29 221.1 742.89C 220.7 744.49 219.7 745.39 218.5 745.39C 217.3 745.39 216.3 744.49 215.9 742.89C 215.4 741.29 215.2 742.49 215.2 746.39z"/>
<path style="stroke:none; fill:#242423" d="M 262.1 746.49C 262.1 747.59 262.4 747.89 262.7 747.09C 263 746.39 262.9 745.49 262.6 745.19C 262.3 744.79 262 745.39 262.1 746.49z"/>
<path style="stroke:none; fill:#242423" d="M 262.1 750.49C 262.1 751.59 262.4 751.89 262.7 751.09C 263 750.39 262.9 749.49 262.6 749.19C 262.3 748.79 262 749.39 262.1 750.49z"/>
<path style="stroke:none; fill:#242423" d="M 409.5 589.49C 405.8 593.19 402.2 595.49 395.5 598.39C 384.7 603.09 385.4 602.69 386.8 604.09C 387.7 604.99 388.3 604.89 389.2 603.59C 390.3 602.29 400.9 596.89 402.5 596.89C 403.4 596.89 396.7 607.49 394.9 608.89C 393.2 610.29 393.1 610.69 394.4 612.39C 396.1 614.79 396 614.89 399.8 607.39C 404 599.09 408.3 593.39 413 589.99C 416.2 587.69 416.7 586.89 415.7 585.79C 414.7 584.59 413.6 585.29 409.5 589.49z"/>
<path style="stroke:none; fill:#242423" d="M 417 598.79C 414 600.99 411.2 602.49 410.8 602.19C 409.7 601.59 409.8 602.69 411.1 604.79C 412.2 606.49 412.6 606.39 416 602.99C 421.2 597.89 424.7 596.19 426.8 597.59C 432.1 600.99 422.1 612.99 410.3 617.49C 407 618.79 405.3 618.99 404.1 618.19C 401.8 616.79 401.5 613.09 403.6 610.79C 406.1 607.99 404.9 607.69 401.8 610.39C 399.1 612.69 399.1 612.89 400.5 616.29C 402.4 620.79 405.4 621.59 412 619.39C 422.7 615.79 432.8 604.19 429.9 598.69C 427.3 593.69 424.3 593.69 417 598.79z"/>
<path style="stroke:none; fill:#242423" d="M 51 598.79C 50.2 600.49 50.2 600.89 51.4 600.89C 53.5 600.89 64 607.09 64 608.39C 64 608.89 63.1 610.49 62.1 611.79L 60.3 614.19L 55.4 611.39C 52.7 609.79 49.7 607.89 48.8 607.09C 47.4 605.89 47 605.99 46 607.79C 45.1 609.49 45.2 609.89 46.5 609.89C 48.6 609.89 69.7 621.59 72.3 624.19C 73.3 625.19 74.3 625.89 74.4 625.69C 75.7 624.19 77 620.79 76.1 621.29C 74.7 622.19 63 615.99 63 614.39C 63 613.69 63.8 612.09 64.8 610.79L 66.7 608.59L 72.3 611.79C 75.3 613.49 78.1 615.49 78.4 616.19C 78.7 617.09 79.1 616.99 79.9 615.89C 81.2 613.99 81.3 612.89 80 612.89C 78.7 612.89 56 600.19 53.8 598.19C 52.3 596.89 52 596.89 51 598.79z"/>
<path style="stroke:none; fill:#242423" d="M 425.3 615.89C 417.4 617.69 408 625.39 408 629.99C 408 638.19 426.8 635.79 436.7 626.39C 439.9 623.29 441.1 621.49 440.8 619.79C 440.2 615.59 433.6 613.89 425.3 615.89zM 438.8 619.49C 439.4 623.59 429.6 629.79 419 632.29C 413.2 633.69 412.7 633.59 411 631.89C 408.4 629.29 409.3 627.59 415.3 623.69C 425.6 617.09 438.1 614.89 438.8 619.49z"/>
<path style="stroke:none; fill:#242423" d="M 39 618.99C 36.3 623.99 39.4 627.39 54 635.29C 58.7 637.89 63 640.69 63.7 641.49C 64.7 642.89 65 642.79 65.9 640.99C 66.8 639.29 66.7 638.99 65.2 639.19C 63 639.29 44.2 628.89 41.6 625.99C 39 623.19 39.8 619.49 43.2 619.09C 46.2 618.69 63.9 627.69 67.7 631.59C 69.9 633.69 70 633.69 71 631.89C 72.3 629.39 72.3 628.89 70.7 628.89C 70 628.89 64.5 626.19 58.4 622.89C 46.3 616.19 41 615.19 39 618.99z"/>
<path style="stroke:none; fill:#242423" d="M 32.5 627.69C 31.5 628.69 32 630.99 33.1 630.39C 33.6 629.99 35.9 630.89 38 632.29C 41.7 634.69 41.8 634.99 40.9 637.89C 39.6 641.39 37.9 641.59 32.7 638.99L 28.9 637.09L 27.9 639.49C 26.7 642.79 26.7 642.79 28.8 642.19C 29.7 641.99 37.3 642.89 45.7 644.29C 54 645.69 61.2 646.89 61.6 646.89C 62.1 646.89 61 645.89 59.1 644.69C 56.9 643.29 53.8 642.39 49.8 642.19C 43.1 641.89 42 641.39 42 639.29C 42 636.59 45 636.59 49.1 639.39C 51.4 640.79 53.4 641.89 53.6 641.69C 53.8 641.39 49.3 638.09 43.5 634.19C 37.8 630.29 32.8 627.39 32.5 627.69z"/>
<path style="stroke:none; fill:#242423" d="M 441.8 629.39C 444.2 630.39 445 631.39 445 633.29C 445 634.69 444.6 635.99 444.2 636.29C 442.6 637.29 418.4 640.99 416.3 640.59C 414.4 640.29 414 640.59 414 642.49C 414 644.99 415.6 646.59 416.2 644.79C 416.6 643.49 443.7 638.69 446.2 639.49C 447.7 639.89 447.8 639.39 447.4 635.19C 446.6 628.09 446.4 627.89 442.3 627.89L 438.5 627.99L 441.8 629.39z"/>
<path style="stroke:none; fill:#242423" d="M 421.3 646.79C 414 650.19 413.5 654.99 420.3 658.59C 424.9 661.09 439.1 661.09 444.7 658.49C 450.1 656.09 451.6 652.89 448.9 649.49C 447.8 648.09 445.2 646.49 443.2 645.89C 437.1 644.19 426 644.69 421.3 646.79zM 446.1 649.49C 449.7 651.29 449.8 653.29 446.3 655.59C 442.5 658.09 425.9 658.69 420.7 656.59C 414.8 654.09 416.5 649.59 423.8 648.39C 425.8 647.99 428.2 647.59 429 647.39C 432 646.59 443.3 647.99 446.1 649.49z"/>
<path style="stroke:none; fill:#242423" d="M 25 653.29C 25 659.39 25.1 659.69 27.6 660.29C 30.8 661.09 32 660.39 29.1 659.39C 27.4 658.89 27 657.89 27 654.29C 27 651.89 27.2 649.89 27.4 649.89C 27.7 649.89 34.5 652.59 42.6 655.89C 50.6 659.19 57.6 661.59 58.1 661.29C 58.6 660.99 59 658.39 59 655.49C 59 650.19 58.9 650.09 55.8 649.69C 52.6 649.19 52.6 649.19 54.8 650.69C 57.2 652.29 58 657.89 55.7 657.89C 55 657.89 48.3 655.39 40.7 652.39C 33.2 649.39 26.6 646.89 26 646.89C 25.4 646.89 25 649.69 25 653.29z"/>
<path style="stroke:none; fill:#242423" d="M 419 663.49C 419 665.69 419.3 665.99 420.2 665.09C 421 664.29 425.1 663.89 432.5 663.89L 443.5 663.99L 432.1 668.69C 421.7 673.09 417.6 675.79 419.1 677.39C 419.4 677.69 421 677.29 422.6 676.39C 426.3 674.49 449.9 674.19 451.8 676.09C 452.7 676.99 453 676.89 453 675.29C 453 673.49 452.3 673.39 440.3 673.59L 427.5 673.89L 439.7 668.69C 446.4 665.79 451.7 663.29 451.5 662.99C 451.2 662.79 444.5 662.69 436.5 662.79C 426.4 662.99 421.4 662.69 420.4 661.79C 419.2 660.89 419 661.09 419 663.49z"/>
<path style="stroke:none; fill:#242423" d="M 23 664.09C 23 666.19 23.5 666.39 28.6 666.59C 36.8 666.79 39 667.59 39 670.19C 39 674.49 37.7 675.19 31.4 674.39C 28.1 673.99 24.7 672.99 23.8 672.19C 22.1 670.69 22 670.79 22 673.69C 22 675.79 22.4 676.69 23.3 676.39C 24.7 675.79 50.7 679.29 53.3 680.39C 54.7 680.99 55 680.59 55 678.49C 55 676.59 54.6 676.09 53.5 676.49C 50.9 677.49 40.9 675.89 40.3 674.29C 40 673.49 40.1 671.79 40.4 670.39C 41 667.99 41.3 667.89 46.8 668.49C 49.9 668.89 53.2 669.59 54.2 669.99C 55.3 670.59 56 670.39 56.4 669.29C 57.4 666.69 57.1 666.09 54.9 666.59C 52.4 667.29 26.8 663.89 25.6 662.79C 23.9 661.29 23 661.79 23 664.09z"/>
<path style="stroke:none; fill:#242423" d="M 417.6 682.09C 416.7 685.59 416.9 685.99 418.8 685.09C 419.8 684.59 422.7 684.59 426 685.29C 431 686.29 431.5 686.69 431.8 689.29C 432 690.89 431.8 692.49 431.3 692.99C 430.3 693.99 419.2 692.09 417.3 690.59C 416.4 689.99 416 689.99 416 690.69C 416 691.29 415.7 692.49 415.3 693.49C 414.8 694.89 415 695.09 416.4 694.59C 418.6 693.69 446.3 698.69 447.1 700.09C 447.4 700.59 448 700.29 448.4 699.39C 449.4 696.69 449.1 695.59 447.5 696.29C 445.4 697.09 435.2 694.89 434 693.39C 433.3 692.49 433.3 691.29 434 689.39C 434.8 687.29 435.5 686.79 437.3 687.19C 438.5 687.49 441.3 688.09 443.5 688.49C 445.7 688.79 448 689.59 448.6 690.09C 449.4 690.59 450 690.39 450.4 689.29C 451.4 686.69 451.1 686.19 448.8 686.59C 445.9 687.09 421.2 682.29 419.5 680.89C 418.6 680.09 418.1 680.39 417.6 682.09z"/>
<path style="stroke:none; fill:#242423" d="M 30.6 682.69C 24.6 684.79 21.3 688.69 22.9 691.69C 24.8 695.29 31.9 697.19 41.2 696.69C 50.5 696.19 55.4 694.19 57.3 690.19C 58.3 687.89 58.1 687.39 55.7 685.29C 50.4 680.69 39.5 679.59 30.6 682.69zM 54.4 685.79C 58.6 689.29 53.2 693.39 42.9 694.39C 34.7 695.19 28.8 694.39 25.8 691.89C 22.8 689.39 24.3 686.89 29.6 685.19C 34.8 683.49 52.2 683.99 54.4 685.79z"/>
<path style="stroke:none; fill:#242423" d="M 56.9 693.79C 55.3 695.99 30.6 704.39 28.4 703.49C 27.6 703.19 27 703.59 27 704.39C 27 706.19 28.7 707.19 29.5 705.99C 30.2 704.79 48.8 698.69 50.1 699.09C 50.6 699.29 47 702.69 42 706.79C 37.1 710.79 32.6 714.69 32 715.39C 31.4 716.09 37.1 714.69 44.7 712.29C 52.3 709.89 59.5 707.89 60.8 707.89C 63 707.89 63.9 705.59 62 704.39C 61.5 704.09 61 704.19 61 704.69C 61 705.79 59 706.59 47.7 710.29C 43.3 711.69 40.3 712.29 40.8 711.59C 41.4 710.89 45.7 707.19 50.4 703.39C 56.4 698.49 58.9 695.69 59 694.09C 59 691.39 58.6 691.29 56.9 693.79z"/>
<path style="stroke:none; fill:#242423" d="M 414.3 698.59C 414.7 699.09 414.3 700.49 413.5 701.49C 411.2 704.49 411.7 706.59 415.3 709.29C 420.2 713.09 426.7 715.09 434 715.19C 441.7 715.29 444.6 714.49 446.1 711.79C 447.5 709.09 446.5 706.39 443.2 704.29L 440.5 702.59L 442.8 705.09C 445.6 708.19 445.6 709.39 442.8 711.29C 439.7 713.49 431.5 713.29 423.8 710.89C 413 707.59 410.7 702.39 419 700.19C 423.1 699.19 423.2 699.09 420.3 698.99C 418.6 698.89 416.4 698.59 415.4 698.19C 414.3 697.79 413.9 697.99 414.3 698.59z"/>
<path style="stroke:none; fill:#242423" d="M 405.8 714.49C 404 718.19 403.6 719.89 404.5 719.49C 406.2 718.89 432.7 731.39 433.3 733.09C 433.6 734.09 439 725.09 439 723.49C 439 723.29 437.9 722.39 436.5 721.49C 434 719.89 434 719.89 435.1 721.69C 436.6 724.09 435.5 728.89 433.5 728.89C 432.7 728.89 429.5 727.69 426.5 726.19C 420.6 723.29 419.8 721.29 423.8 719.29L 426 718.19L 423.5 717.09C 420.1 715.49 419.8 715.59 420.5 717.79C 420.8 718.79 420.4 720.19 419.5 720.89C 418.2 721.99 417.1 721.79 412.9 719.89C 406.8 716.99 406.7 716.79 408.2 713.39C 409.1 711.29 409.9 710.79 411.8 711.19C 414.5 711.69 413.5 710.39 410.4 709.49C 408.7 708.99 408 709.79 405.8 714.49z"/>
<path style="stroke:none; fill:#242423" d="M 50.7 712.39C 42 714.09 34 720.29 34 725.39C 34 726.59 35.1 728.59 36.4 729.79L 38.8 732.09L 44.5 729.99C 47.5 728.79 51 727.89 52 727.89C 54.1 727.89 54.5 726.29 53.1 724.09C 52.4 722.99 52.2 722.99 51.7 724.09C 51.1 725.79 39.7 729.39 37.6 728.59C 35.8 727.89 35.5 725.59 37 722.79C 38.4 720.29 46.5 716.19 54 714.29C 59 712.99 60.4 712.99 62.7 714.09C 66.3 715.79 66.7 718.49 63.9 721.49L 61.6 723.89L 64.6 722.89C 67.2 721.99 67.6 721.29 67.5 718.49C 67.5 716.59 66.9 714.39 66.2 713.59C 64.6 711.69 57.3 711.09 50.7 712.39z"/>
<path style="stroke:none; fill:#242423" d="M 402 725.09C 399.1 729.89 398.5 733.79 400.4 735.69C 401.4 736.69 402 736.89 402 736.19C 402 735.49 401.5 734.69 401 734.39C 400.3 733.99 400.3 733.19 401 731.89C 401.9 730.19 402.9 730.49 413.7 736.09C 420.2 739.49 426.4 742.99 427.6 744.09C 429.6 745.89 429.7 745.89 430.9 743.29C 431.8 741.29 431.8 740.79 430.8 741.19C 429.6 741.59 410.5 732.59 405.4 729.19C 402.7 727.49 403.2 725.19 406.3 724.69L 408.5 724.39L 406.3 723.09C 404.2 721.89 403.8 722.09 402 725.09z"/>
<path style="stroke:none; fill:#242423" d="M 74.5 728.19C 74.1 728.99 70.4 732.59 66.2 736.09C 55.6 744.69 53 747.59 53 750.79C 53 753.89 53.9 755.29 56.3 756.19C 59.2 757.29 63.9 754.69 73.8 746.59C 82.8 739.19 86 737.99 86 741.79C 86 743.49 69.4 762.99 66.5 764.59C 65.3 765.29 65.4 765.59 67 766.69C 68.7 767.69 69 767.69 69 766.19C 69 765.19 71.1 762.09 73.6 759.39C 76.1 756.59 79.3 752.89 80.7 751.09C 82.1 749.29 83.4 747.99 83.6 748.19C 83.8 748.39 82.2 753.89 79.9 760.29C 77.7 766.79 76 772.19 76.2 772.49C 76.5 772.69 81.4 767.49 87.3 760.99C 96.6 750.59 97.7 748.89 96.4 747.79C 95.1 746.69 94.9 746.79 95.2 748.09C 95.5 749.59 90.8 755.79 83.7 763.39C 81.5 765.69 81 765.89 81.5 764.39C 81.8 763.29 83.7 757.69 85.7 751.99L 89.3 741.59L 85.9 738.79C 83.4 736.79 82.4 736.39 82 737.39C 81.4 739.09 66.4 751.59 62.6 753.59C 61 754.39 58.7 754.79 57.4 754.49C 53.4 753.49 54.4 749.89 60.3 744.29C 65.8 738.99 75.3 731.29 77.3 730.59C 78.1 730.29 78 729.59 76.8 728.29C 75.2 726.69 75 726.69 74.5 728.19z"/>
<path style="stroke:none; fill:#242423" d="M 381.1 741.29C 379.9 742.59 379.3 743.79 379.8 743.99C 381 744.49 395.9 763.49 397.6 766.69L 398.8 768.99L 402.4 765.59C 404.6 763.49 406 761.19 406 759.69C 406 755.79 401.2 747.39 396.5 742.99C 392.7 739.49 391.4 738.89 387.7 738.89C 384.4 738.89 382.8 739.49 381.1 741.29zM 389.9 741.29C 397.3 745.19 405.4 758.39 403.1 762.79C 402.4 763.99 401.4 764.89 400.7 764.89C 400 764.89 396.1 760.49 392 755.19C 382.2 742.49 382.4 742.79 384.6 741.19C 386.8 739.59 386.5 739.59 389.9 741.29z"/>
<path style="stroke:none; fill:#242423" d="M 374.8 746.29C 372.7 747.89 372.5 748.89 374.3 748.89C 375.5 748.89 387.5 763.69 386.8 764.39C 386.6 764.59 382 762.19 376.6 758.89C 367.7 753.59 364 752.49 364 754.99C 364 755.49 364.5 755.89 365.2 755.89C 365.8 755.89 367.2 756.69 368.2 757.59C 369.3 758.49 370.6 759.39 371.3 759.49C 372 759.59 377.2 762.49 382.9 765.79C 388.6 769.19 393.4 771.89 393.5 771.69C 393.7 771.49 389.8 765.99 384.9 759.49C 379.9 752.89 376.1 746.99 376.4 746.19C 377 744.59 377 744.59 374.8 746.29z"/>
<path style="stroke:none; fill:#242423" d="M 103 754.89C 103 756.59 83.8 777.89 82.2 777.89C 80.9 777.89 81 778.19 82.5 779.89C 84.3 781.89 84.3 781.89 85.9 779.59C 88.4 775.89 105 757.09 106.1 756.69C 106.6 756.49 106.1 755.79 105 755.09C 103.9 754.39 103 754.29 103 754.89z"/>
<path style="stroke:none; fill:#242423" d="M 105.6 773.29C 102.9 781.59 100.5 789.09 100.3 789.89C 99.8 791.39 102.5 788.69 116.5 773.59C 123.1 766.59 123.6 765.69 121.9 764.79C 120.3 763.99 120 764.19 120 765.79C 120 767.69 106.2 784.39 105.3 783.59C 105.1 783.39 106.5 778.49 108.5 772.79C 110.4 767.09 112 762.29 112 762.19C 112 761.99 112.7 761.89 113.6 761.89C 115.4 761.89 114.6 760.29 112.2 758.99C 110.7 758.29 109.9 760.09 105.6 773.29z"/>
<path style="stroke:none; fill:#242423" d="M 371 760.59C 371 760.89 373.8 764.79 377.2 769.19C 380.6 773.59 383.3 777.79 383.3 778.49C 383.3 780.29 384.4 780.29 386 778.39C 387 777.19 387 776.89 385.9 776.89C 385.1 776.89 381.6 773.09 378 768.39C 371.6 759.89 371 759.29 371 760.59z"/>
<path style="stroke:none; fill:#242423" d="M 356.6 763.59C 357 764.59 359.7 770.49 362.6 776.79C 365.6 783.09 368 789.09 368 790.19C 368 791.79 368.3 791.89 369.4 790.99C 370.6 789.99 370.5 789.19 368.4 786.09C 365.7 782.09 365.6 780.19 368.2 778.49C 370.3 777.19 374.9 779.49 376.5 782.69C 377.4 784.29 377.9 784.49 379.2 783.49C 380.5 782.59 379 780.89 369.2 772.39C 356.5 761.39 355.7 760.89 356.6 763.59zM 367.9 776.49C 365.9 778.89 364.5 778.09 362.2 773.39C 361 770.89 360 768.59 360 768.29C 360 767.99 362 769.39 364.5 771.49C 368.1 774.39 368.8 775.39 367.9 776.49z"/>
<path style="stroke:none; fill:#242423" d="M 126.6 768.29C 127.1 769.69 114.6 793.59 112.4 795.49C 111.3 796.39 112.1 797.19 116 799.29C 121.2 802.09 122.3 802.09 124.1 798.79C 125 796.99 124.9 796.89 123.2 797.99C 120.7 799.59 116 798.39 116 796.09C 116 793.99 121.7 783.89 122.9 783.89C 124.2 783.89 127.1 787.49 126.3 788.19C 126 788.59 126 788.89 126.3 788.89C 126.7 788.89 127.6 787.59 128.4 785.99C 129.8 783.29 129.8 783.19 127.6 783.59C 123.4 784.39 122.8 781.79 126.1 776.09C 127.7 773.19 129.6 770.89 130.3 770.89C 132.4 770.89 134 773.09 134 775.79L 134.1 778.39L 135.6 775.59C 136.5 773.99 137 772.59 136.8 772.49C 136 771.89 126.7 766.89 126.4 766.89C 126.2 766.89 126.3 767.49 126.6 768.29z"/>
<path style="stroke:none; fill:#242423" d="M 337.5 768.49C 335.3 769.29 332.9 770.19 332.1 770.39C 330.9 770.89 331 771.19 332.3 772.19C 334 773.49 343 796.99 343 800.19C 343 801.39 343.5 801.89 344.4 801.59C 345.2 801.29 347.6 800.49 349.9 799.79C 354.1 798.59 354.9 796.89 353 793.89C 352.2 792.69 352 792.79 352 794.59C 352 796.79 349.4 798.89 346.8 798.89C 346.1 798.89 344.4 795.89 343.1 792.29C 341.1 786.79 341 785.49 342.1 784.79C 344 783.59 345.4 783.69 346.8 785.09C 348.4 786.69 348.3 785.89 346.6 781.89C 345.4 778.99 345.2 778.89 344.7 780.79C 343.8 784.29 340.3 783.49 338.5 779.19C 335.7 772.59 335.6 771.19 337.9 769.89C 339.5 769.09 340.6 769.09 342.2 769.99C 344 770.99 344.2 770.89 343.7 769.39C 343.3 768.49 343 767.49 343 767.29C 343 766.69 341.8 766.89 337.5 768.49z"/>
<path style="stroke:none; fill:#242423" d="M 141 774.59C 141 776.49 129.3 797.59 126.9 799.99C 125.2 801.69 125.3 801.79 127.6 803.39C 130 804.99 130.1 804.89 129.9 803.19C 129.5 800.89 134.6 790.89 136.1 790.89C 136.9 790.89 137 792.69 136.4 796.59C 135.2 805.59 135.3 808.29 137 808.59C 138.2 808.89 138.5 807.69 138.6 803.19C 138.7 794.99 139.6 792.19 142.8 790.69C 146 789.19 150 781.79 149.3 778.79C 148.8 776.89 143.7 772.89 141.8 772.89C 141.3 772.89 141 773.59 141 774.59zM 147 779.79C 147 782.09 143.5 787.59 141.2 788.79C 140.2 789.29 138.8 789.39 138.1 788.99C 137.1 788.29 137.4 787.09 139.6 783.29C 143.7 775.99 144 775.69 145.6 776.99C 146.4 777.59 147 778.89 147 779.79z"/>
<path style="stroke:none; fill:#242423" d="M 320.6 774.49C 316.9 778.09 317.4 786.49 321.7 796.09C 324.4 802.19 328.9 806.89 331.9 806.89C 334.2 806.89 337 803.79 336.9 801.29C 336.9 799.69 336.7 799.69 335.9 801.69C 335.2 803.59 334.4 803.99 331.8 803.69C 329.1 803.39 328.2 802.59 325.3 797.29C 321.4 790.09 319.3 780.69 320.9 777.19C 322.3 774.09 325.5 774.29 328.6 777.59L 331.2 780.39L 329.8 776.99C 328.7 774.29 327.8 773.59 325.3 773.29C 323.3 773.09 321.5 773.49 320.6 774.49z"/>
<path style="stroke:none; fill:#242423" d="M 312.7 776.69C 311.2 776.99 311.1 777.29 312.1 778.49C 313.2 779.89 318.2 798.99 317.6 799.59C 317.4 799.79 314.3 795.39 310.6 789.89C 305.7 782.59 303.3 779.89 301.8 779.89C 299.8 779.89 299.8 779.99 301.4 781.79C 303.5 784.09 309.3 808.39 308.4 811.19C 307.9 812.79 308.1 813.09 309.5 812.59C 310.4 812.19 311.4 811.89 311.7 811.89C 312 811.89 311.8 811.29 311.3 810.59C 310.7 809.99 309.3 805.09 308.1 799.89C 306.8 794.69 305.6 789.79 305.4 789.09C 304.6 786.29 306.9 789.09 313.1 798.39C 316.6 803.69 319.6 807.59 319.8 807.09C 320 806.49 319 800.49 317.6 793.79C 316.2 786.99 315 780.29 314.8 778.89C 314.6 777.09 314 776.49 312.7 776.69z"/>
<path style="stroke:none; fill:#242423" d="M 153.4 779.59C 152.5 780.59 151.1 782.79 150.3 784.69C 149 787.79 149.1 788.79 151.1 795.39C 153 801.79 153.1 802.99 151.8 805.49C 150.9 807.59 149.7 808.39 148 808.39C 145.8 808.39 145.4 807.89 145 804.39L 144.5 800.39L 143.3 803.79C 142.1 806.79 142.2 807.29 144.3 808.99C 147.2 811.39 149.5 811.39 152 808.69C 155.9 804.49 156.5 799.89 154.1 792.79C 151.5 785.09 151.5 784.79 154 781.59C 156.9 777.99 159 779.09 159.1 784.29L 159.2 788.39L 160.6 784.99C 162 781.99 161.9 781.49 160.4 779.79C 158.3 777.39 155.7 777.39 153.4 779.59z"/>
<path style="stroke:none; fill:#242423" d="M 166.3 782.29C 166.9 783.79 157.7 808.29 155.8 810.69C 154.9 811.69 155 812.29 156.1 812.99C 158.4 814.39 159.8 813.99 159.3 812.09C 158.7 809.69 167.7 786.89 170.1 784.79C 171.8 783.19 171.8 783.09 169.4 781.99C 166.2 780.59 165.7 780.59 166.3 782.29z"/>
<path style="stroke:none; fill:#242423" d="M 288.6 783.09C 286.7 783.79 286.2 784.39 287 784.89C 288.4 785.69 294 808.49 294 813.09C 294 816.19 294.6 816.39 300.1 814.69C 303.6 813.69 304 813.19 303.9 810.49C 303.8 807.69 303.7 807.59 303.1 809.79C 302.3 812.59 298.6 814.39 297.2 812.59C 296.4 811.49 294 802.19 294 799.99C 294 798.39 297.2 797.89 298.8 799.09C 300.1 800.19 300.3 800.09 299.7 797.89C 299.3 796.49 299 794.69 299 793.89C 298.9 792.99 298.5 793.29 298 794.59C 296.5 798.39 293.2 797.49 292.1 793.09C 290 784.59 290 784.79 292.7 783.79C 294.5 783.09 295.7 783.19 296.8 784.09C 298.1 785.19 298.2 785.09 297.8 783.89C 297.2 782.09 292.5 781.59 288.6 783.09z"/>
<path style="stroke:none; fill:#242423" d="M 173.3 785.59C 173 786.59 172.5 787.79 172.2 788.39C 171.9 788.89 172.6 788.59 173.8 787.49C 176.1 785.49 179.5 785.99 178.7 788.29C 178.4 788.99 176.7 794.99 175 801.49C 173.2 808.09 171.1 814.19 170.2 815.09C 168.8 816.69 168.8 816.89 170.3 816.89C 171.1 816.89 172.4 817.09 173.2 817.39C 174.1 817.79 174.5 816.79 174.7 814.19C 174.8 810.99 180.5 787.99 181.4 787.19C 182.4 786.19 185 788.39 185 790.19C 185 792.19 185 792.19 186.4 790.29C 188.2 787.99 188.3 788.29 190.5 798.69C 192.4 807.79 192.4 814.59 190.6 818.09C 189.4 820.39 189.4 820.79 190.7 821.29C 193.9 822.59 195 821.99 194.1 819.59C 192.6 815.79 194.7 806.79 199.3 797.59C 203.4 789.29 203.5 788.89 201.4 788.89C 199.8 788.89 199.3 789.39 199.6 790.69C 199.9 791.59 198.9 795.09 197.4 798.39C 195 803.89 194.7 804.19 193.9 802.09C 193.4 800.79 192.9 797.19 192.8 794.09L 192.5 788.39L 185.1 786.09C 176.1 783.39 174.1 783.39 173.3 785.59z"/>
<path style="stroke:none; fill:#242423" d="M 278.3 784.59C 277.3 784.99 277.3 785.29 278.3 786.29C 280 787.99 285.3 813.29 284.5 815.79C 284 817.29 284.4 817.59 286.5 817.09C 289.3 816.59 289.4 816.49 288 814.09C 286.9 811.99 282 789.49 282 786.19C 282 783.99 280.9 783.49 278.3 784.59z"/>
<path style="stroke:none; fill:#242423" d="M 267.5 787.29C 262.4 791.19 263.2 806.99 269 816.29C 272.5 822.09 278 822.29 279.9 816.69C 281.5 812.19 281.3 811.99 279 815.59C 276.8 819.29 275 819.69 272.7 817.09C 266.7 810.39 264.4 791.49 269.3 788.49C 270.8 787.59 271.6 787.99 274 790.79L 276.8 794.09L 275.9 790.29C 275 786.89 274.5 786.39 271.9 786.29C 270.3 786.19 268.3 786.69 267.5 787.29z"/>
<path style="stroke:none; fill:#242423" d="M 213.8 790.59C 209.1 796.19 208 811.09 211.9 818.59C 214.4 823.59 215.4 824.29 218.5 823.49C 225.9 821.59 228.2 799.49 221.9 791.49C 219.5 788.49 216 788.09 213.8 790.59zM 222 797.59C 223.4 804.19 222.9 815.09 221 819.09C 220.1 820.89 218.9 821.89 217.5 821.89C 216.1 821.89 214.9 820.89 214.1 819.09C 212.2 814.99 211.6 802.89 213 796.99C 215.2 787.79 220.1 788.19 222 797.59z"/>
<path style="stroke:none; fill:#242423" d="M 229.1 790.49C 229.8 791.29 230 797.69 229.8 807.29L 229.5 822.89L 231.8 822.89C 233.1 822.89 233.9 822.59 233.7 822.09C 233.4 821.69 233 818.19 232.8 814.39L 232.5 807.39L 235.3 807.39C 237.7 807.49 238 807.09 238 804.39C 237.9 801.89 237.8 801.69 236.9 803.09C 235.1 806.39 233 805.19 232.9 800.89C 232.6 791.49 232.7 790.89 234.9 790.89C 236 790.89 237.6 791.89 238.4 793.09L 240 795.29L 240 792.59C 240 789.49 240.3 789.69 233.3 789.49C 229.3 789.29 228.3 789.59 229.1 790.49z"/>
<path style="stroke:none; fill:#242423" d="M 250.1 790.79C 248.2 791.99 248.5 800.49 250.7 803.79C 251.6 805.19 253.5 807.29 254.8 808.29C 259.7 812.09 261 814.19 261 818.09C 261 821.49 260.7 821.89 258.5 821.89C 256.9 821.89 255.5 820.99 254.5 819.09C 252.9 816.39 252.9 816.39 253.4 818.89C 253.7 820.29 254 821.99 254 822.59C 254 824.79 260.8 824.19 262 821.99C 264.8 816.69 262 808.59 256.1 804.39C 254 802.99 251.8 800.69 251.1 799.29C 248.2 792.99 251.6 789.49 255.8 794.49C 258.3 797.39 258.3 797.39 257.7 794.89C 257.3 793.49 257 791.89 257 791.39C 257 790.09 251.9 789.69 250.1 790.79z"/>
</g>
</g>
</svg>