<?xml version="1.0" standalone="no"?>
<!DOCTYPE svg PUBLIC "-//W3C//DTD SVG 20010904//EN"
 "http://www.w3.org/TR/2001/REC-SVG-20010904/DTD/svg10.dtd">
<svg version="1.0" xmlns="http://www.w3.org/2000/svg"
 width="474.000000pt" height="341.000000pt" viewBox="0 0 474.000000 341.000000"
 preserveAspectRatio="xMidYMid meet">

<g transform="translate(0.000000,341.000000) scale(0.100000,-0.100000)"
fill="#000000" stroke="none">
<path d="M2090 3400 c0 -5 -17 -10 -37 -10 -60 0 -298 -38 -413 -65 -368 -88
-715 -245 -978 -442 -149 -112 -318 -287 -426 -442 -91 -130 -194 -378 -212
-509 -3 -29 -10 -52 -15 -52 -5 0 -9 -76 -9 -170 0 -107 4 -170 10 -170 6 0
10 -12 10 -26 0 -43 40 -193 77 -283 123 -307 388 -602 730 -813 326 -202 755
-349 1138 -388 61 -7 118 -16 127 -21 22 -11 548 -12 548 0 0 4 37 11 83 15
227 17 526 89 767 183 555 217 975 589 1150 1016 37 90 80 245 80 286 0 12 5
21 10 21 6 0 10 63 10 170 0 107 -4 170 -10 170 -5 0 -10 13 -10 29 0 16 -11
72 -25 125 -77 297 -274 581 -570 822 -163 134 -502 316 -727 393 -219 75
-577 151 -707 151 -23 0 -41 5 -41 10 0 6 -100 10 -280 10 -180 0 -280 -4
-280 -10z m590 -95 c524 -56 972 -226 1344 -508 408 -310 634 -775 586 -1205
-46 -420 -291 -786 -715 -1071 -247 -166 -583 -302 -910 -370 -353 -72 -758
-80 -1115 -20 -780 130 -1423 560 -1649 1102 -202 487 -86 998 321 1407 364
366 939 615 1548 669 155 14 445 12 590 -4z"/>
<path d="M2070 3211 c0 -11 7 -53 15 -93 16 -74 14 -118 -6 -118 -7 0 -9 11
-6 28 3 16 0 33 -10 44 -11 12 -12 21 -4 37 15 27 15 28 -14 35 -37 9 -47 -2
-24 -25 14 -14 19 -28 15 -44 -3 -13 -2 -27 4 -30 5 -3 10 -28 10 -56 0 -36 4
-49 14 -49 8 0 18 5 21 10 11 18 23 10 29 -20 3 -16 9 -43 12 -60 3 -16 10
-30 16 -30 7 0 9 28 4 88 -6 80 -4 91 14 114 11 15 20 31 20 36 0 18 -29 22
-38 5 -14 -23 -21 -4 -28 76 -6 60 -10 71 -25 71 -12 0 -19 -7 -19 -19z"/>
<path d="M2507 3213 c-4 -3 -7 -26 -7 -50 0 -48 -22 -78 -65 -89 -14 -3 -25
-13 -25 -20 0 -22 29 -28 49 -10 25 22 31 20 31 -11 0 -18 -13 -38 -41 -64
-35 -32 -39 -40 -25 -45 10 -4 25 1 38 12 21 19 21 19 15 -13 -7 -34 -1 -63
13 -63 9 0 30 79 30 115 0 32 35 85 56 85 11 0 13 -8 9 -32 -4 -18 0 -43 7
-56 11 -21 10 -26 -10 -42 -12 -10 -28 -20 -35 -23 -6 -2 -9 -8 -4 -13 4 -4
24 -2 44 5 34 13 38 12 51 -8 16 -23 42 -27 73 -11 24 14 25 30 0 30 -10 0
-29 8 -41 18 -22 18 -22 19 -5 53 10 19 24 42 33 51 12 14 12 20 2 33 -16 19
-29 19 -51 -1 -10 -9 -22 -14 -27 -13 -17 7 7 49 38 67 31 18 39 49 18 70 -21
21 -35 13 -52 -33 -13 -32 -25 -47 -43 -51 -14 -4 -29 -18 -34 -32 -7 -19 -13
-22 -21 -14 -9 9 -7 19 10 42 26 34 27 40 8 40 -11 0 -13 10 -9 40 4 31 2 40
-9 40 -8 0 -18 -3 -21 -7z m125 -225 c-8 -8 -16 -7 -28 3 -15 12 -15 14 7 19
26 7 37 -6 21 -22z"/>
<path d="M1950 3165 c-24 -25 -39 -45 -32 -45 7 0 17 -10 21 -22 10 -25 -16
-63 -51 -74 -22 -7 -24 -23 -2 -31 8 -3 25 4 38 16 36 34 38 11 5 -42 -42 -68
-38 -77 24 -52 14 6 17 2 17 -19 0 -16 6 -26 14 -26 19 0 24 17 16 61 -4 20
-3 45 3 54 6 12 6 16 -1 11 -19 -11 -20 20 -1 45 23 30 24 59 2 59 -9 0 -25 7
-35 17 -17 15 -17 17 18 40 33 23 40 43 18 50 -5 2 -30 -17 -54 -42z"/>
<path d="M1441 3076 c-8 -10 -5 -22 16 -52 39 -58 35 -122 -7 -96 -11 7 -22
12 -25 12 -8 0 -5 -64 4 -78 14 -24 45 -9 55 26 5 18 14 31 20 29 6 -2 23 -37
37 -78 32 -93 46 -119 64 -119 21 0 19 13 -19 102 -31 70 -37 108 -17 108 3 0
12 9 19 21 11 18 11 24 -2 38 -14 15 -14 21 4 54 25 46 25 47 1 47 -11 0 -32
-16 -47 -36 l-28 -36 -18 36 c-19 38 -38 45 -57 22z m114 -87 c9 -26 -10 -48
-26 -32 -12 12 -3 53 11 53 5 0 12 -9 15 -21z"/>
<path d="M3204 3034 c-39 -66 -71 -83 -136 -73 -29 5 -54 7 -56 5 -11 -12 22
-46 43 -46 14 0 25 -4 25 -9 0 -14 -56 -30 -92 -26 -31 4 -32 3 -14 -10 31
-23 81 -18 143 15 37 20 70 30 99 30 32 0 44 4 44 15 0 9 -9 15 -25 15 -32 0
-32 17 1 51 20 21 25 34 20 53 -9 37 -21 32 -52 -20z"/>
<path d="M3610 2910 c0 -14 -4 -32 -10 -40 -7 -12 -10 -11 -16 5 -7 18 -8 18
-15 -1 -12 -30 -11 -86 1 -79 6 4 17 1 26 -5 12 -10 16 -7 25 19 6 17 17 31
25 31 18 0 18 -9 -2 -32 -14 -14 -14 -20 -4 -33 20 -24 55 -18 68 11 9 18 19
24 35 22 34 -5 26 -21 -22 -45 -37 -19 -54 -21 -104 -16 -44 5 -58 3 -53 -5 4
-7 23 -12 42 -12 23 0 34 -5 34 -15 0 -22 -42 -28 -141 -20 -89 6 -90 6 -80
-14 17 -31 28 -34 82 -21 37 9 54 9 62 1 16 -16 -44 -95 -77 -101 -25 -5 -26
-6 -11 -27 24 -34 42 -28 66 20 25 49 68 107 79 107 4 0 10 -9 13 -21 4 -14
12 -19 24 -17 18 4 21 19 8 51 -6 14 -2 17 19 17 19 0 26 5 26 19 0 28 21 40
61 35 74 -10 78 66 5 80 -32 6 -35 10 -30 30 6 27 -11 43 -29 27 -7 -5 -23 -8
-35 -4 -16 4 -22 1 -22 -11 0 -9 -7 -16 -15 -16 -10 0 -15 10 -15 28 0 36 -20
68 -20 32z"/>
<path d="M981 2870 c4 -48 -7 -61 -27 -32 -10 14 -26 22 -45 22 -38 0 -37 -14
1 -30 45 -19 45 -26 0 -56 -43 -29 -48 -39 -25 -48 9 -3 31 9 55 31 23 20 43
33 47 29 4 -3 2 -11 -5 -18 -7 -7 -8 -17 -1 -29 7 -14 5 -21 -12 -29 -12 -7
-30 -10 -40 -7 -22 6 -23 4 -6 -26 26 -46 54 -49 68 -7 6 16 15 27 20 24 17
-10 9 -21 -56 -84 -35 -35 -62 -67 -59 -72 14 -23 47 -4 91 52 25 33 50 60 55
60 12 0 11 -2 -23 -70 -40 -82 -26 -102 29 -41 l39 43 23 -36 c29 -47 49 -68
61 -61 16 11 10 37 -22 88 l-31 50 21 28 c27 37 27 39 -9 39 -16 0 -30 2 -30
5 0 3 11 23 25 45 14 22 25 44 25 50 0 18 -39 10 -50 -10 -6 -11 -15 -18 -21
-15 -6 4 -5 13 1 25 16 30 12 40 -16 40 -21 0 -24 -3 -19 -20 4 -12 1 -27 -5
-35 -10 -12 -9 -15 3 -15 19 0 31 -16 22 -30 -7 -11 -65 45 -65 63 0 6 12 28
26 49 22 31 24 40 14 53 -7 8 -23 15 -37 15 -22 0 -24 -3 -22 -40z m119 -150
c-6 -11 -15 -20 -20 -20 -6 0 -5 9 2 20 7 11 16 20 21 20 4 0 3 -9 -3 -20z
m-30 -108 c0 -5 -9 -17 -20 -27 -23 -21 -26 -14 -8 15 13 20 28 27 28 12z"/>
<path d="M3150 2883 c-1 -5 -5 -27 -9 -50 -10 -50 1 -68 42 -75 32 -6 32 -7 7
34 -11 18 -20 48 -20 66 0 17 -4 32 -10 32 -5 0 -10 -3 -10 -7z"/>
<path d="M2230 2739 c-638 -31 -1206 -312 -1426 -705 -61 -109 -85 -195 -91
-319 -5 -92 -2 -125 16 -195 68 -272 288 -510 626 -676 443 -217 992 -280
1525 -174 191 38 334 86 505 170 298 145 500 336 601 568 43 99 58 192 51 317
-9 162 -63 294 -184 444 -306 382 -935 603 -1623 570z m369 -65 c148 -21 368
-80 395 -105 6 -5 -256 -9 -614 -9 -358 0 -620 4 -614 9 11 10 143 54 233 76
179 45 413 57 600 29z m-993 -117 c-207 -133 -335 -245 -415 -365 -112 -167
-163 -324 -164 -507 -1 -184 48 -340 161 -508 89 -131 196 -231 356 -331 49
-31 86 -56 83 -56 -19 0 -167 60 -251 102 -316 158 -527 382 -591 628 -34 129
-18 304 39 433 81 183 266 364 510 497 110 60 341 151 272 107z m1622 -21
c393 -151 673 -421 743 -714 18 -73 14 -227 -6 -302 -70 -256 -274 -470 -599
-629 -130 -64 -285 -127 -243 -98 10 6 58 37 105 68 187 119 321 265 407 442
130 267 121 534 -26 807 -92 169 -218 291 -465 447 -33 21 -6 14 84 -21z m-82
-42 c261 -139 463 -398 521 -669 28 -132 5 -325 -56 -468 l-20 -47 -1209 0
c-1138 0 -1210 1 -1224 18 -22 25 -58 126 -74 210 -67 351 117 709 481 933
l79 49 727 0 726 0 49 -26z m-1323 -1229 c21 -6 22 -6 2 -15 -16 -7 -17 -9 -3
-9 28 -1 30 -17 7 -61 -14 -27 -26 -39 -36 -36 -9 4 -13 1 -11 -6 7 -21 38
-22 38 -2 0 17 1 17 16 2 9 -9 13 -21 10 -27 -14 -22 -76 -9 -76 15 0 8 -4 14
-10 14 -5 0 -10 -4 -10 -10 0 -5 -4 -10 -10 -10 -16 0 -12 14 10 38 20 22 20
22 1 41 -23 23 -34 13 -26 -21 3 -13 2 -35 -4 -48 l-10 -25 0 28 c-1 24 -4 27
-22 22 -23 -8 -22 -3 15 48 13 18 26 25 37 22 10 -3 20 -1 24 5 3 5 1 10 -4
10 -6 0 -11 5 -11 10 0 6 6 10 14 10 7 0 17 10 21 23 6 17 8 19 12 6 2 -10 14
-20 26 -24z m210 15 c-4 -5 -19 -10 -33 -13 -16 -3 -10 -5 18 -6 43 -1 54 -15
30 -39 -19 -19 -17 -52 3 -52 10 0 21 -4 24 -10 4 -6 -5 -10 -19 -10 -21 0
-26 -5 -26 -25 0 -30 -21 -41 -47 -26 -16 9 -16 10 5 11 13 0 22 6 22 16 0 13
-8 15 -35 12 -19 -2 -35 0 -35 4 0 4 6 8 14 8 8 0 24 9 37 21 23 19 23 20 2
10 -27 -14 -33 -14 -33 -1 0 6 7 10 16 10 14 0 14 3 4 15 -18 22 -27 19 -35
-12 -8 -34 -32 -73 -45 -73 -5 0 4 25 21 56 16 31 29 66 29 79 0 18 8 25 38
32 38 10 60 7 45 -7z m527 -5 c0 -16 6 -25 15 -25 20 0 19 -10 -2 -26 -10 -7
-15 -16 -10 -20 4 -4 13 -2 19 4 7 7 17 12 23 12 5 0 2 -7 -9 -15 -25 -19 -15
-41 28 -56 20 -7 36 -17 36 -21 0 -16 -47 -7 -65 12 -25 28 -35 25 -35 -10 0
-31 -6 -35 -34 -24 -19 7 -22 25 -4 22 15 -4 22 26 14 57 -4 15 -15 25 -29 27
-28 4 -25 21 5 28 16 4 24 14 26 33 4 34 22 36 22 2z m250 -26 c3 -24 8 -43
13 -41 4 1 7 -1 8 -5 0 -5 -10 -11 -23 -15 -13 -3 -16 -7 -8 -7 12 -1 10 -5
-5 -17 -20 -15 -20 -15 -1 -30 11 -8 27 -14 36 -14 9 0 25 -7 36 -15 18 -14
17 -14 -13 -15 -17 0 -35 5 -38 10 -4 6 -24 19 -45 30 -33 17 -40 18 -50 5 -7
-8 -20 -15 -29 -15 -14 1 -14 2 1 11 10 5 23 19 29 30 10 20 9 21 -21 14 -50
-11 -27 11 25 24 43 11 64 25 28 19 -14 -2 -19 5 -21 30 -3 26 1 34 20 41 41
15 53 7 58 -40z m-550 32 c0 -6 -4 -13 -10 -16 -17 -10 -11 -20 20 -33 36 -16
32 -27 -12 -37 l-33 -8 28 -4 c15 -3 27 -11 27 -19 0 -8 -6 -14 -12 -13 -29 4
-38 -2 -38 -26 0 -28 -20 -41 -47 -30 -16 6 -15 8 5 16 34 13 22 35 -18 31
-21 -2 -30 0 -25 7 3 6 12 11 19 11 16 0 66 39 51 40 -5 0 -17 -4 -25 -9 -8
-6 -18 -7 -23 -4 -17 10 17 23 63 23 34 0 41 3 32 12 -9 9 -23 9 -59 1 -59
-14 -67 -9 -20 11 20 8 40 24 47 35 11 21 30 29 30 12z m920 -6 c0 -8 -4 -15
-10 -15 -5 0 -10 7 -10 15 0 8 5 15 10 15 6 0 10 -7 10 -15z m-970 -5 c0 -5
-4 -10 -10 -10 -5 0 -10 5 -10 10 0 6 5 10 10 10 6 0 10 -4 10 -10z m408 -9
c3 -8 -1 -12 -9 -9 -7 2 -15 10 -17 17 -3 8 1 12 9 9 7 -2 15 -10 17 -17z
m434 -68 c2 -49 1 -92 -3 -96 -3 -4 -19 -2 -35 4 -27 12 -28 13 -6 16 21 4 22
9 22 84 0 43 4 79 9 79 5 0 11 -39 13 -87z m-1412 -8 c0 -77 -2 -85 -19 -85
-25 0 -36 16 -15 24 12 4 14 19 12 63 -2 32 -8 58 -15 60 -13 5 -12 -34 1 -55
4 -7 2 -12 -4 -12 -6 0 -20 -16 -31 -35 -12 -19 -25 -35 -31 -35 -5 0 -7 4 -3
9 3 5 0 13 -6 16 -5 4 -8 13 -5 21 4 11 0 10 -20 -2 -13 -9 -28 -13 -32 -9 -4
4 -1 10 6 12 7 3 12 21 12 43 0 29 5 42 19 50 35 18 41 12 42 -42 0 -39 3 -48
9 -33 5 11 9 34 9 52 1 31 11 39 54 42 15 1 17 -9 17 -84z m100 76 c0 -13 -29
-35 -37 -28 -7 8 15 37 28 37 5 0 9 -4 9 -9z m440 -12 c0 -5 -7 -9 -15 -9 -8
0 -15 7 -15 15 0 9 6 12 15 9 8 -4 15 -10 15 -15z m784 6 c-4 -8 -1 -15 5 -15
6 0 11 -5 11 -11 0 -6 -8 -8 -19 -4 -11 3 -24 -1 -32 -11 -12 -15 -11 -16 8
-10 12 4 24 2 28 -4 10 -16 -4 -50 -21 -50 -8 0 -14 -7 -14 -15 0 -18 12 -19
28 -3 9 9 12 8 12 -4 0 -24 -16 -31 -41 -18 -16 9 -19 18 -14 37 5 23 4 25
-20 19 -25 -6 -25 -5 16 49 40 53 65 72 53 40z m225 -52 c-4 -58 -19 -95 -37
-88 -8 3 -20 5 -29 5 -9 0 -13 6 -10 14 3 8 1 17 -6 20 -7 2 -2 8 11 12 17 5
20 9 11 15 -10 6 -10 11 -1 22 7 7 9 17 5 21 -9 9 16 26 40 26 16 0 18 -7 16
-47z m81 39 c0 -5 -12 -14 -26 -21 -33 -15 -26 -25 9 -12 24 10 37 6 37 -11 0
-4 -7 -8 -15 -8 -12 0 -15 -13 -15 -55 0 -30 -4 -55 -10 -55 -5 0 -10 23 -10
50 0 54 -15 66 -31 24 -14 -40 -19 -25 -8 26 10 44 30 70 56 70 7 0 13 -4 13
-8z m-260 -47 c0 -14 -4 -25 -10 -25 -5 0 -10 11 -10 25 0 14 5 25 10 25 6 0
10 -11 10 -25z m-495 -5 c3 -5 -1 -10 -9 -10 -9 0 -16 5 -16 10 0 6 4 10 9 10
6 0 13 -4 16 -10z m-645 -30 c8 -5 12 -12 9 -15 -8 -8 -39 5 -39 16 0 11 11
11 30 -1z m650 7 c0 -2 -11 -14 -24 -26 -14 -14 -26 -18 -30 -12 -4 5 6 17 21
25 31 17 33 18 33 13z m880 -107 c0 -13 -144 -126 -216 -170 l-58 -35 -736 -3
c-404 -1 -745 0 -757 3 -30 7 -187 115 -248 170 l-50 45 1033 0 c667 0 1032
-4 1032 -10z m-430 -272 c-341 -154 -842 -154 -1191 1 l-44 20 640 0 640 0
-45 -21z"/>
<path d="M2395 2379 c-114 -14 -238 -45 -286 -71 -22 -13 -55 -31 -72 -40 -18
-10 -50 -18 -73 -18 -43 0 -84 -27 -84 -56 0 -8 15 -29 33 -45 77 -72 190
-134 307 -169 148 -44 235 -109 247 -184 14 -88 -79 -197 -201 -235 -163 -50
-286 -58 -736 -48 -59 1 -82 -3 -107 -18 -18 -11 -33 -23 -33 -27 0 -4 249 -8
553 -8 616 0 590 -3 649 70 34 43 67 132 60 165 -6 33 -67 102 -111 125 -20
10 -70 54 -113 98 -65 68 -94 88 -197 141 -124 65 -191 121 -191 162 0 14 12
26 43 39 43 19 43 19 247 -10 221 -32 387 -69 564 -126 141 -46 188 -70 184
-92 -3 -15 -24 -18 -178 -22 -184 -5 -196 -8 -243 -58 l-28 -29 32 -7 c17 -3
49 -6 70 -6 22 0 39 -5 39 -11 0 -6 -27 -104 -60 -218 -33 -114 -60 -210 -60
-214 0 -4 34 -7 75 -7 69 0 76 2 84 23 5 12 35 108 67 212 32 105 64 198 72
207 8 10 31 20 51 24 90 16 164 78 216 181 35 70 32 101 -11 151 -28 33 -49
46 -100 62 -158 48 -536 80 -709 59z"/>
<path d="M1651 1901 c-12 -23 -91 -305 -91 -325 0 -12 10 -16 43 -16 52 0 61
6 80 53 14 32 20 37 48 37 27 0 30 -3 25 -20 -3 -11 -9 -29 -12 -40 -7 -21 -8
-21 108 -24 20 -1 26 13 68 166 26 93 44 170 42 173 -3 3 -31 5 -63 5 l-57 0
-15 -47 c-9 -27 -23 -74 -32 -105 -14 -54 -18 -58 -45 -58 -37 0 -37 8 -10
121 11 46 18 84 17 85 -1 1 -24 4 -50 6 -37 5 -49 2 -56 -11z"/>
<path d="M2024 1905 c-2 -5 -19 -75 -39 -155 -20 -80 -38 -153 -41 -162 -5
-17 6 -18 140 -18 80 0 147 4 150 9 9 14 98 313 94 316 -13 12 -85 14 -99 3
-9 -7 -30 -69 -48 -138 -18 -68 -37 -130 -43 -137 -15 -19 -58 -17 -58 3 0 9
16 74 35 145 19 71 35 131 35 133 0 10 -123 10 -126 1z"/>
<path d="M1788 1183 c7 -3 16 -2 19 1 4 3 -2 6 -13 5 -11 0 -14 -3 -6 -6z"/>
<path d="M1997 1243 c-13 -12 -7 -23 13 -23 11 0 20 7 20 15 0 15 -21 21 -33
8z"/>
<path d="M2764 1260 c0 -20 7 -25 19 -14 7 7 -2 34 -12 34 -4 0 -7 -9 -7 -20z"/>
<path d="M1513 1210 c0 -16 4 -27 9 -24 4 3 8 16 8 30 0 13 -4 24 -8 24 -5 0
-9 -13 -9 -30z"/>
<path d="M3140 1150 c0 -5 5 -10 11 -10 5 0 7 5 4 10 -3 6 -8 10 -11 10 -2 0
-4 -4 -4 -10z"/>
<path d="M1977 1010 c-3 -8 -9 -28 -13 -45 l-7 -30 -13 40 -14 40 6 -50 c8
-68 20 -89 29 -50 13 58 18 60 30 15 8 -28 15 -39 18 -30 11 27 28 113 23 118
-3 2 -8 -9 -11 -24 -16 -69 -18 -70 -30 -19 -7 29 -14 44 -18 35z"/>
<path d="M2247 960 c-8 -33 -11 -60 -6 -60 5 0 9 5 9 10 0 6 9 10 20 10 11 0
20 -7 20 -15 0 -8 4 -15 9 -15 5 0 3 26 -5 58 -7 31 -13 60 -14 65 0 4 -4 7
-9 7 -5 0 -15 -27 -24 -60z m33 -1 c0 -10 -4 -19 -10 -19 -5 0 -10 12 -10 26
0 14 4 23 10 19 6 -3 10 -15 10 -26z"/>
<path d="M2322 953 l1 -68 7 50 6 50 22 -47 c12 -27 24 -48 27 -48 3 0 4 28 4
63 -2 54 -3 57 -8 22 l-6 -40 -19 43 c-10 23 -23 42 -28 42 -4 0 -7 -30 -6
-67z"/>
<path d="M2450 1001 c-14 -27 -13 -74 3 -95 15 -21 48 -18 55 4 5 13 3 13 -12
0 -16 -13 -20 -12 -32 5 -17 23 -17 35 -4 71 8 21 14 24 22 16 17 -17 33 -15
18 3 -17 21 -37 19 -50 -4z"/>
<path d="M2533 955 c0 -38 2 -55 4 -37 4 27 8 33 26 30 13 -2 22 -10 22 -20 0
-9 4 -20 8 -24 4 -4 7 19 6 52 -1 41 -3 51 -8 34 -10 -37 -44 -33 -52 5 -4 19
-6 4 -6 -40z"/>
<path d="M2662 953 c1 -67 1 -67 7 -18 l6 50 19 -43 c28 -63 36 -61 34 10 -1
60 -1 61 -7 18 l-6 -45 -19 43 c-11 24 -23 45 -28 48 -4 3 -7 -25 -6 -63z"/>
<path d="M2757 960 c-8 -34 -11 -63 -6 -66 5 -3 9 1 9 9 0 25 27 27 44 4 15
-20 16 -21 12 -2 -23 96 -29 115 -36 115 -4 0 -14 -27 -23 -60z m33 5 c0 -14
-4 -25 -10 -25 -5 0 -10 11 -10 25 0 14 5 25 10 25 6 0 10 -11 10 -25z"/>
<path d="M2054 958 c8 -60 16 -71 42 -66 16 3 19 13 20 63 l1 60 -6 -55 c-4
-39 -10 -55 -21 -55 -11 0 -16 14 -18 53 -2 28 -8 52 -14 52 -7 0 -8 -17 -4
-52z"/>
<path d="M2152 955 c1 -33 3 -47 5 -32 6 40 45 34 54 -8 5 -20 7 -9 7 35 0 41
-3 56 -7 40 -4 -16 -14 -25 -26 -25 -12 0 -22 9 -26 25 -5 16 -7 4 -7 -35z"/>
<path d="M2621 954 c0 -11 3 -14 6 -6 3 7 2 16 -1 19 -3 4 -6 -2 -5 -13z"/>
<path d="M2621 914 c0 -11 3 -14 6 -6 3 7 2 16 -1 19 -3 4 -6 -2 -5 -13z"/>
<path d="M4095 2524 c-37 -37 -73 -60 -140 -89 -108 -47 -101 -43 -87 -57 9
-9 15 -8 24 5 11 13 117 67 133 67 9 0 -58 -106 -76 -120 -17 -14 -18 -18 -5
-35 17 -24 16 -25 54 50 42 83 85 140 132 174 32 23 37 31 27 42 -10 12 -21 5
-62 -37z"/>
<path d="M4170 2431 c-30 -22 -58 -37 -62 -34 -11 6 -10 -5 3 -26 11 -17 15
-16 49 18 52 51 87 68 108 54 53 -34 -47 -154 -165 -199 -33 -13 -50 -15 -62
-7 -23 14 -26 51 -5 74 25 28 13 31 -18 4 -27 -23 -27 -25 -13 -59 19 -45 49
-53 115 -31 107 36 208 152 179 207 -26 50 -56 50 -129 -1z"/>
<path d="M510 2431 c-8 -17 -8 -21 4 -21 21 0 126 -62 126 -75 0 -5 -9 -21
-19 -34 l-18 -24 -49 28 c-27 16 -57 35 -66 43 -14 12 -18 11 -28 -7 -9 -17
-8 -21 5 -21 21 0 232 -117 258 -143 10 -10 20 -17 21 -15 13 15 26 49 17 44
-14 -9 -131 53 -131 69 0 7 8 23 18 36 l19 22 56 -32 c30 -17 58 -37 61 -44 3
-9 7 -8 15 3 13 19 14 30 1 30 -13 0 -240 127 -262 147 -15 13 -18 13 -28 -6z"/>
<path d="M4253 2260 c-79 -18 -173 -95 -173 -141 0 -82 188 -58 287 36 32 31
44 49 41 66 -6 42 -72 59 -155 39z m135 -36 c6 -41 -92 -103 -198 -128 -58
-14 -63 -13 -80 4 -26 26 -17 43 43 82 103 66 228 88 235 42z"/>
<path d="M390 2229 c-27 -50 4 -84 150 -163 47 -26 90 -54 97 -62 10 -14 13
-13 22 5 9 17 8 20 -7 18 -22 -1 -210 103 -236 132 -26 28 -18 65 16 69 30 4
207 -86 245 -125 22 -21 23 -21 33 -3 13 25 13 30 -3 30 -7 0 -62 27 -123 60
-121 67 -174 77 -194 39z"/>
<path d="M325 2142 c-10 -10 -5 -33 6 -27 5 4 28 -5 49 -19 37 -24 38 -27 29
-56 -13 -35 -30 -37 -82 -11 l-38 19 -10 -24 c-12 -33 -12 -33 9 -27 9 2 85
-7 169 -21 83 -14 155 -26 159 -26 5 0 -6 10 -25 22 -22 14 -53 23 -93 25 -67
3 -78 8 -78 29 0 27 30 27 71 -1 23 -14 43 -25 45 -23 2 3 -43 36 -101 75 -57
39 -107 68 -110 65z"/>
<path d="M4418 2125 c24 -10 32 -20 32 -39 0 -14 -4 -27 -8 -30 -16 -10 -258
-47 -279 -43 -19 3 -23 0 -23 -19 0 -25 16 -41 22 -23 4 13 275 61 300 53 15
-4 16 1 12 43 -8 71 -10 73 -51 73 l-38 -1 33 -14z"/>
<path d="M4213 1951 c-73 -34 -78 -82 -10 -118 46 -25 188 -25 244 1 54 24 69
56 42 90 -11 14 -37 30 -57 36 -61 17 -172 12 -219 -9z m248 -27 c36 -18 37
-38 2 -61 -38 -25 -204 -31 -256 -10 -59 25 -42 70 31 82 20 4 44 8 52 10 30
8 143 -6 171 -21z"/>
<path d="M250 1886 c0 -61 1 -64 26 -70 32 -8 44 -1 15 9 -17 5 -21 15 -21 51
0 24 2 44 4 44 3 0 71 -27 152 -60 80 -33 150 -57 155 -54 5 3 9 29 9 58 0 53
-1 54 -32 58 -32 5 -32 5 -10 -10 24 -16 32 -72 9 -72 -7 0 -74 25 -150 55
-75 30 -141 55 -147 55 -6 0 -10 -28 -10 -64z"/>
<path d="M4190 1784 c0 -22 3 -25 12 -16 8 8 49 12 123 12 l110 -1 -114 -47
c-104 -44 -145 -71 -130 -87 3 -3 19 1 35 10 37 19 273 22 292 3 9 -9 12 -8
12 8 0 18 -7 19 -127 17 l-128 -3 122 52 c67 29 120 54 118 57 -3 2 -70 3
-150 2 -101 -2 -151 1 -161 10 -12 9 -14 7 -14 -17z"/>
<path d="M230 1778 c0 -21 5 -23 56 -25 82 -2 104 -10 104 -36 0 -43 -13 -50
-76 -42 -33 4 -67 14 -76 22 -17 15 -18 14 -18 -15 0 -21 4 -30 13 -27 14 6
274 -29 300 -40 14 -6 17 -2 17 19 0 19 -4 24 -15 20 -26 -10 -126 6 -132 22
-3 8 -2 25 1 39 6 24 9 25 64 19 31 -4 64 -11 74 -15 11 -6 18 -4 22 7 10 26
7 32 -15 27 -25 -7 -281 27 -293 38 -17 15 -26 10 -26 -13z"/>
<path d="M4176 1598 c-9 -35 -7 -39 12 -30 10 5 39 5 72 -2 50 -10 55 -14 58
-40 2 -16 0 -32 -5 -37 -10 -10 -121 9 -140 24 -9 6 -13 6 -13 -1 0 -6 -3 -18
-7 -28 -5 -14 -3 -16 11 -11 22 9 299 -41 307 -55 3 -5 9 -2 13 7 10 27 7 38
-9 31 -21 -8 -123 14 -135 29 -7 9 -7 21 0 40 8 21 15 26 33 22 12 -3 40 -9
62 -13 22 -3 45 -11 51 -16 8 -5 14 -3 18 8 10 26 7 31 -16 27 -29 -5 -276 43
-293 57 -9 8 -14 5 -19 -12z"/>
<path d="M306 1592 c-60 -21 -93 -60 -77 -90 19 -36 90 -55 183 -50 93 5 142
25 161 65 10 23 8 28 -16 49 -53 46 -162 57 -251 26z m238 -31 c42 -35 -12
-76 -115 -86 -82 -8 -141 0 -171 25 -30 25 -15 50 38 67 52 17 226 12 248 -6z"/>
<path d="M569 1481 c-16 -22 -263 -106 -285 -97 -8 3 -14 -1 -14 -9 0 -18 17
-28 25 -16 7 12 193 73 206 69 5 -2 -31 -36 -81 -77 -49 -40 -94 -79 -100 -86
-6 -7 51 7 127 31 76 24 148 44 161 44 22 0 31 23 12 35 -5 3 -10 2 -10 -3 0
-11 -20 -19 -133 -56 -44 -14 -74 -20 -69 -13 6 7 49 44 96 82 60 49 85 77 86
93 0 27 -4 28 -21 3z"/>
<path d="M4143 1433 c4 -5 0 -19 -8 -29 -23 -30 -18 -51 18 -78 49 -38 114
-58 187 -59 77 -1 106 7 121 34 14 27 4 54 -29 75 l-27 17 23 -25 c28 -31 28
-43 0 -62 -31 -22 -113 -20 -190 4 -108 33 -131 85 -48 107 41 10 42 11 13 12
-17 1 -39 4 -49 8 -11 4 -15 2 -11 -4z"/>
<path d="M4058 1274 c-18 -37 -22 -54 -13 -50 17 6 282 -119 288 -136 3 -10
57 80 57 96 0 2 -11 11 -25 20 -25 16 -25 16 -14 -2 15 -24 4 -72 -16 -72 -8
0 -40 12 -70 27 -59 29 -67 49 -27 69 l22 11 -25 11 c-34 16 -37 15 -30 -7 3
-10 -1 -24 -10 -31 -13 -11 -24 -9 -66 10 -61 29 -62 31 -47 65 9 21 17 26 36
22 27 -5 17 8 -14 17 -17 5 -24 -3 -46 -50z"/>
<path d="M507 1295 c-87 -17 -167 -79 -167 -130 0 -12 11 -32 24 -44 l24 -23
57 21 c30 12 65 21 75 21 21 0 25 16 11 38 -7 11 -9 11 -14 0 -6 -17 -120 -53
-141 -45 -18 7 -21 30 -6 58 14 25 95 66 170 85 50 13 64 13 87 2 36 -17 40
-44 12 -74 l-23 -24 30 10 c26 9 30 16 29 44 0 19 -6 41 -13 49 -16 19 -89 25
-155 12z"/>
<path d="M4020 1168 c-29 -48 -35 -87 -16 -106 10 -10 16 -12 16 -5 0 7 -5 15
-10 18 -7 4 -7 12 0 25 9 17 19 14 127 -42 65 -34 127 -69 139 -80 20 -18 21
-18 33 8 9 20 9 25 -1 21 -12 -4 -203 86 -254 120 -27 17 -22 40 9 45 l22 3
-22 13 c-21 12 -25 10 -43 -20z"/>
<path d="M745 1137 c-4 -8 -41 -44 -83 -79 -106 -86 -132 -115 -132 -147 0
-31 9 -45 33 -54 29 -11 76 15 175 96 90 74 122 86 122 48 0 -17 -166 -212
-195 -228 -12 -7 -11 -10 5 -21 17 -10 20 -10 20 5 0 10 21 41 46 68 25 28 57
65 71 83 14 18 27 31 29 29 2 -2 -14 -57 -37 -121 -22 -65 -39 -119 -37 -122
3 -2 52 50 111 115 93 104 104 121 91 132 -13 11 -15 10 -12 -3 3 -15 -44 -77
-115 -153 -22 -23 -27 -25 -22 -10 3 11 22 67 42 124 l36 104 -34 28 c-25 20
-35 24 -39 14 -6 -17 -156 -142 -194 -162 -16 -8 -39 -12 -52 -9 -40 10 -30
46 29 102 55 53 150 130 170 137 8 3 7 10 -5 23 -16 16 -18 16 -23 1z"/>
<path d="M3811 1006 c-12 -13 -18 -25 -13 -27 12 -5 161 -195 178 -227 l12
-23 36 34 c22 21 36 44 36 59 0 39 -48 123 -95 167 -38 35 -51 41 -88 41 -33
0 -49 -6 -66 -24z m88 0 c74 -39 155 -171 132 -215 -7 -12 -17 -21 -24 -21 -7
0 -46 44 -87 97 -98 127 -96 124 -74 140 22 16 19 16 53 -1z"/>
<path d="M3748 956 c-21 -16 -23 -26 -5 -26 12 0 132 -148 125 -155 -2 -2 -48
22 -102 55 -89 53 -126 64 -126 39 0 -5 5 -9 12 -9 6 0 20 -8 30 -17 11 -9 24
-18 31 -19 7 -1 59 -30 116 -63 57 -34 105 -61 106 -59 2 2 -37 57 -86 122
-50 66 -88 125 -85 133 6 16 6 16 -16 -1z"/>
<path d="M1030 870 c0 -17 -192 -230 -208 -230 -13 0 -12 -3 3 -20 18 -20 18
-20 34 3 25 37 191 225 202 229 5 2 0 9 -11 16 -11 7 -20 8 -20 2z"/>
<path d="M1056 686 c-27 -83 -51 -158 -53 -166 -5 -15 22 12 162 163 66 70 71
79 54 88 -16 8 -19 6 -19 -10 0 -19 -138 -186 -147 -178 -2 2 12 51 32 108 19
57 35 105 35 106 0 2 7 3 16 3 18 0 10 16 -14 29 -15 7 -23 -11 -66 -143z"/>
<path d="M3710 813 c0 -3 28 -42 62 -86 34 -44 61 -86 61 -93 0 -18 11 -18 27
1 10 12 10 15 -1 15 -8 0 -43 38 -79 85 -64 85 -70 91 -70 78z"/>
<path d="M3566 783 c4 -10 31 -69 60 -132 30 -63 54 -123 54 -134 0 -16 3 -17
14 -8 12 10 11 18 -10 49 -27 40 -28 59 -2 76 21 13 67 -10 83 -42 9 -16 14
-18 27 -8 13 9 -2 26 -100 111 -127 110 -135 115 -126 88z m113 -129 c-20 -24
-34 -16 -57 31 -12 25 -22 48 -22 51 0 3 20 -11 45 -32 36 -29 43 -39 34 -50z"/>
<path d="M1266 736 c5 -14 -120 -253 -142 -272 -11 -9 -3 -17 36 -38 52 -28
63 -28 81 5 9 18 8 19 -9 8 -25 -16 -72 -4 -72 19 0 21 57 122 69 122 13 0 42
-36 34 -43 -3 -4 -3 -7 0 -7 4 0 13 13 21 29 14 27 14 28 -8 24 -42 -8 -48 18
-15 75 16 29 35 52 42 52 21 0 37 -22 37 -49 l1 -26 15 28 c9 16 14 30 12 31
-8 6 -101 56 -104 56 -2 0 -1 -6 2 -14z"/>
<path d="M3375 734 c-22 -8 -46 -17 -54 -19 -12 -5 -11 -8 2 -18 17 -13 107
-248 107 -280 0 -12 5 -17 14 -14 8 3 32 11 55 18 42 12 50 29 31 59 -8 12
-10 11 -10 -7 0 -22 -26 -43 -52 -43 -7 0 -24 30 -37 66 -20 55 -21 68 -10 75
19 12 33 11 47 -3 16 -16 15 -8 -2 32 -12 29 -14 30 -19 11 -9 -35 -44 -27
-62 16 -28 66 -29 80 -6 93 16 8 27 8 43 -1 18 -10 20 -9 15 6 -4 9 -7 19 -7
21 0 6 -12 4 -55 -12z"/>
<path d="M1410 673 c0 -19 -117 -230 -141 -254 -17 -17 -16 -18 7 -34 24 -16
25 -15 23 2 -4 23 47 123 62 123 8 0 9 -18 3 -57 -12 -90 -11 -117 6 -120 12
-3 15 9 16 54 1 82 10 110 42 125 32 15 72 89 65 119 -5 19 -56 59 -75 59 -5
0 -8 -7 -8 -17z m60 -52 c0 -23 -35 -78 -58 -90 -10 -5 -24 -6 -31 -2 -10 7
-7 19 15 57 41 73 44 76 60 63 8 -6 14 -19 14 -28z"/>
<path d="M3206 674 c-37 -36 -32 -120 11 -216 27 -61 72 -108 102 -108 23 0
51 31 50 56 0 16 -2 16 -10 -4 -7 -19 -15 -23 -41 -20 -27 3 -36 11 -65 64
-39 72 -60 166 -44 201 14 31 46 29 77 -4 l26 -28 -14 34 c-11 27 -20 34 -45
37 -20 2 -38 -2 -47 -12z"/>
<path d="M3127 652 c-15 -3 -16 -6 -6 -18 11 -14 61 -205 55 -211 -2 -2 -33
42 -70 97 -49 73 -73 100 -88 100 -20 0 -20 -1 -4 -19 21 -23 79 -266 70 -294
-5 -16 -3 -19 11 -14 9 4 19 7 22 7 3 0 1 6 -4 13 -6 6 -20 55 -32 107 -13 52
-25 101 -27 108 -8 28 15 0 77 -93 35 -53 65 -92 67 -87 2 6 -8 66 -22 133
-14 68 -26 135 -28 149 -2 18 -8 24 -21 22z"/>
<path d="M1534 623 c-9 -10 -23 -32 -31 -51 -13 -31 -12 -41 8 -107 19 -64 20
-76 7 -101 -9 -21 -21 -29 -38 -29 -22 0 -26 5 -30 40 l-5 40 -12 -34 c-12
-30 -11 -35 10 -52 29 -24 52 -24 77 3 39 42 45 88 21 159 -26 77 -26 80 -1
112 29 36 50 25 51 -27 l1 -41 14 34 c14 30 13 35 -2 52 -21 24 -47 24 -70 2z"/>
<path d="M1663 596 c6 -15 -86 -260 -105 -284 -9 -10 -8 -16 3 -23 23 -14 37
-10 32 9 -6 24 84 252 108 273 17 16 17 17 -7 28 -32 14 -37 14 -31 -3z"/>
<path d="M2886 588 c-19 -7 -24 -13 -16 -18 14 -8 70 -236 70 -282 0 -31 6
-33 61 -16 35 10 39 15 38 42 -1 28 -2 29 -8 7 -8 -28 -45 -46 -59 -28 -8 11
-32 104 -32 126 0 16 32 21 48 9 13 -11 15 -10 9 12 -4 14 -7 32 -7 40 -1 9
-5 6 -10 -7 -15 -38 -48 -29 -59 15 -21 85 -21 83 6 93 18 7 30 6 41 -3 13
-11 14 -10 10 2 -6 18 -53 23 -92 8z"/>
<path d="M1733 563 c-3 -10 -8 -22 -11 -28 -3 -5 4 -2 16 9 23 20 57 15 49 -8
-3 -7 -20 -67 -37 -132 -18 -66 -39 -127 -48 -136 -14 -16 -14 -18 1 -18 8 0
21 -2 29 -5 9 -4 13 6 15 32 1 32 58 262 67 270 10 10 36 -12 36 -30 0 -20 0
-20 14 -1 18 23 19 20 41 -84 19 -91 19 -159 1 -194 -12 -23 -12 -27 1 -32 32
-13 43 -7 34 17 -15 38 6 128 52 220 41 83 42 87 21 87 -16 0 -21 -5 -18 -18
3 -9 -7 -44 -22 -77 -24 -55 -27 -58 -35 -37 -5 13 -10 49 -11 80 l-3 57 -74
23 c-90 27 -110 27 -118 5z"/>
<path d="M2783 573 c-10 -4 -10 -7 0 -17 17 -17 70 -270 62 -295 -5 -15 -1
-18 20 -13 28 5 29 6 15 30 -11 21 -60 246 -60 279 0 22 -11 27 -37 16z"/>
<path d="M2675 546 c-51 -39 -43 -197 15 -290 35 -58 90 -60 109 -4 16 45 14
47 -9 11 -22 -37 -40 -41 -63 -15 -60 67 -83 256 -34 286 15 9 23 5 47 -23
l28 -33 -9 38 c-9 34 -14 39 -40 40 -16 1 -36 -4 -44 -10z"/>
<path d="M2138 513 c-47 -56 -58 -205 -19 -280 25 -50 35 -57 66 -49 74 19 97
240 34 320 -24 30 -59 34 -81 9z m82 -70 c14 -66 9 -175 -10 -215 -9 -18 -21
-28 -35 -28 -14 0 -26 10 -34 28 -19 41 -25 162 -11 221 22 92 71 88 90 -6z"/>
<path d="M2291 514 c7 -8 9 -72 7 -168 l-3 -156 23 0 c13 0 21 3 19 8 -3 4 -7
39 -9 77 l-3 70 28 0 c24 -1 27 3 27 30 -1 25 -2 27 -11 13 -18 -33 -39 -21
-40 22 -3 94 -2 100 20 100 11 0 27 -10 35 -22 l16 -22 0 27 c0 31 3 29 -67
31 -40 2 -50 -1 -42 -10z"/>
<path d="M2501 511 c-19 -12 -16 -97 6 -130 9 -14 28 -35 41 -45 49 -38 62
-59 62 -98 0 -34 -3 -38 -25 -38 -16 0 -30 9 -40 28 -16 27 -16 27 -11 2 3
-14 6 -31 6 -37 0 -22 68 -16 80 6 28 53 0 134 -59 176 -21 14 -43 37 -50 51
-29 63 5 98 47 48 25 -29 25 -29 19 -4 -4 14 -7 30 -7 35 0 13 -51 17 -69 6z"/>
</g>
</svg>
